<svg width="70" height="70" xmlns="http://www.w3.org/2000/svg">
    <defs>
        <filter x="-4.3%" y="-3.1%" width="108.6%" height="106.2%" filterUnits="objectBoundingBox" id="a">
            <feOffset dy="2" in="SourceAlpha" result="shadowOffsetOuter1"/>
            <feGaussianBlur stdDeviation="2" in="shadowOffsetOuter1" result="shadowBlurOuter1"/>
            <feColorMatrix values="0 0 0 0 0 0 0 0 0 0 0 0 0 0 0 0 0 0 0.5 0" in="shadowBlurOuter1" result="shadowMatrixOuter1"/>
            <feMerge>
                <feMergeNode in="shadowMatrixOuter1"/>
                <feMergeNode in="SourceGraphic"/>
            </feMerge>
        </filter>
    </defs>
    <g filter="url(#a)" transform="translate(-105 -34)" fill="#FFF" fill-rule="evenodd">
        <path d="M127 66.982c.71.908 1.516 1.882 2.42 2.91 2.997 3.414 6.539 6.833 10.637 10.108 2.223-1.89 4.45-3.946 6.63-6.136A109.431 109.431 0 0 0 153 66.971a76.191 76.191 0 0 0-3.977-4.535c-2.779-2.937-5.766-5.69-8.753-8.173l-.318-.263a109.392 109.392 0 0 0-6.799 6.278A109.609 109.609 0 0 0 127 66.982zm-9.34 15.007c-2.752 5.519-3.205 9.352-2.106 10.455 1.1 1.103 4.923.648 10.426-2.111 2.832-1.42 5.886-3.331 9.02-5.639a87.785 87.785 0 0 1-10.099-9.747 80.024 80.024 0 0 1-1.66-1.947c-2.282 3.124-4.174 6.167-5.581 8.989zm36.818-23.738A84.085 84.085 0 0 1 157.825 62c2.241-3.088 4.103-6.095 5.494-8.888 2.774-5.57 3.23-9.438 2.122-10.55-1.108-1.114-4.962-.655-10.51 2.13-2.806 1.408-5.828 3.295-8.931 5.57a105.358 105.358 0 0 1 8.478 7.989zm-43.153-19.926c5.19-5.19 16.518-1.323 28.675 7.942 12.157-9.265 23.485-13.132 28.675-7.942 5.19 5.19 1.323 16.518-7.942 28.675 9.265 12.157 13.132 23.485 7.942 28.675-5.19 5.19-16.518 1.323-28.675-7.942-12.157 9.265-23.485 13.132-28.675 7.942-5.19-5.19-1.323-16.518 7.942-28.675-9.265-12.157-13.132-23.485-7.942-28.675zm17.594 17.594A118.627 118.627 0 0 1 135 50.243c-3.11-2.274-6.14-4.161-8.952-5.567-5.537-2.768-9.384-3.224-10.49-2.118-1.106 1.106-.65 4.953 2.118 10.49 1.406 2.812 3.293 5.842 5.567 8.952a118.627 118.627 0 0 1 5.676-6.08zm23.162 23.162A118.627 118.627 0 0 1 146 84.757c3.11 2.274 6.14 4.161 8.952 5.567 5.537 2.768 9.384 3.224 10.49 2.118 1.106-1.106.65-4.953-2.118-10.49-1.406-2.812-3.293-5.842-5.567-8.952a118.627 118.627 0 0 1-5.676 6.08zM140.5 72a4.5 4.5 0 1 1 0-9 4.5 4.5 0 0 1 0 9z"/>
    </g>
</svg>
