<svg width="140" height="70" viewBox="0 0 140 70" fill="none" xmlns="http://www.w3.org/2000/svg">
<mask id="mask0" mask-type="alpha" maskUnits="userSpaceOnUse" x="45" y="10" width="51" height="50">
<path fill-rule="evenodd" clip-rule="evenodd" d="M70.1136 10C56.3024 10 45 21.4856 45 35.098C45 48.8285 56.3198 60 70.1136 60H95.2262V35.098C95.2262 21.6523 84.0832 10 70.1136 10Z" fill="white"/>
</mask>
<g mask="url(#mask0)">
<path fill-rule="evenodd" clip-rule="evenodd" d="M70.1136 10C56.3024 10 45 21.4856 45 35.098C45 48.8285 56.3198 60 70.1136 60H95.2262V35.098C95.2262 21.6523 84.0832 10 70.1136 10Z" fill="url(#paint0_linear)"/>
</g>
<path fill-rule="evenodd" clip-rule="evenodd" d="M57.209 36.1765C57.209 28.731 63.102 23.4324 71.4149 23.4324C77.0331 23.4324 81.326 25.9447 83.0168 30.2386L76.3022 33.6641C75.1143 31.3349 73.3786 30.3292 71.3691 30.3292C68.3539 30.3292 65.9789 32.4304 65.9789 36.1765C65.9789 40.0123 68.3539 42.1135 71.3691 42.1135C73.3786 42.1135 75.1143 41.1096 76.3022 38.7804L83.0168 42.206C81.326 46.4998 77.0331 49.0112 71.4149 49.0112C63.102 49.0112 57.209 43.7136 57.209 36.1765Z" fill="#121212"/>
<defs>
<linearGradient id="paint0_linear" x1="30.8635" y1="33.8347" x2="67.7498" y2="81.4712" gradientUnits="userSpaceOnUse">
<stop stop-color="#D4D4D4"/>
<stop offset="1" stop-color="#949494"/>
</linearGradient>
</defs>
</svg>
