<svg width="133" height="31" viewBox="0 0 133 31" fill="none" xmlns="http://www.w3.org/2000/svg">
<path fill-rule="evenodd" clip-rule="evenodd" d="M8.28827 17.1827C7.74492 17.1835 7.20165 17.1843 6.65847 17.1843C6.1444 17.1843 5.63032 17.1849 5.11648 17.1855C3.57594 17.1873 2.03757 17.1892 0.507874 17.1744C0.116446 17.1716 0.0112237 17.2811 0.0112237 17.6697C0.0210445 21.4044 0.0210445 25.1391 0.0210445 28.8738C-0.00179765 29.0375 0.0205174 29.2044 0.0855809 29.3564C0.554171 30.1883 1.1841 30.7692 2.21809 30.6948C3.60562 30.5952 4.99175 30.4802 6.32878 30.0593C10.7453 28.6633 13.9848 25.9191 15.9489 21.7102C16.179 21.2178 16.4666 21.0143 17.011 21.041C17.5692 21.0697 18.1294 21.0635 18.6899 21.0574C18.9253 21.0548 19.1607 21.0522 19.396 21.0522C19.6555 21.0536 19.8758 20.9891 19.8758 20.6832C19.8824 19.9912 19.8802 19.2992 19.878 18.6068C19.8769 18.2604 19.8758 17.9139 19.8758 17.5673C19.8744 17.3049 19.7327 17.1955 19.4619 17.1955C19.2449 17.2019 19.0253 17.1995 18.8071 17.1971C18.505 17.1938 18.2054 17.1905 17.9187 17.2109C17.4248 17.246 17.2887 17.0482 17.3168 16.581C17.387 15.4249 17.4024 14.2661 17.2144 13.1199C16.182 6.70656 11.2854 1.60318 4.9202 0.306575C3.76416 0.0624587 2.59268 -0.0932705 1.41279 0.0624587C0.667812 0.160666 0.00982076 0.853731 0.00982076 1.51733C0.00289636 3.63697 0.00314463 5.75703 0.00339282 7.87635C0.0035972 9.62162 0.00380153 11.3664 0 13.11C0 13.3948 0.0883868 13.472 0.36898 13.472C0.975944 13.4664 1.58353 13.4683 2.19133 13.4701C2.4953 13.4711 2.79933 13.472 3.10336 13.472C3.89884 13.472 3.89884 13.4706 3.89884 12.6751C3.89042 9.98049 3.88621 7.28726 3.88621 4.59544C3.88621 4.07494 3.95636 4.01742 4.46003 4.12264C6.56551 4.55853 8.49478 5.60811 10.0045 7.13902C12.6239 9.75134 13.6972 12.9375 13.4292 16.6006C13.3983 17.0285 13.2201 17.1927 12.7726 17.1927C11.2776 17.1783 9.78268 17.1805 8.28827 17.1827ZM3.89969 23.8428H3.88426C3.88426 23.6167 3.88517 23.3906 3.88608 23.1647C3.88816 22.6492 3.89023 22.1349 3.88145 21.6247C3.87303 21.2375 4.00351 21.0565 4.4244 21.0565C5.99094 21.0621 7.55748 21.0602 9.12444 21.0584C9.90807 21.0574 10.6918 21.0565 11.4757 21.0565C11.8264 21.0565 11.9289 21.121 11.6974 21.4662C9.9577 24.0476 7.62456 25.7929 4.55908 26.514C3.92494 26.6627 3.89969 26.6417 3.89969 25.9725V23.8428Z" fill="#FDCB04"/>
<path fill-rule="evenodd" clip-rule="evenodd" d="M30.4012 9.20698V16.9401C30.4012 19.5347 30.4003 22.1255 30.3984 24.7126C30.3984 25.4968 30.4026 25.4968 31.1995 25.4968C31.7575 25.4968 32.3155 25.4988 32.8734 25.5009C33.989 25.5049 35.1045 25.509 36.2193 25.4968C37.7851 25.48 39.3213 25.2892 40.7537 24.5877C44.2948 22.8649 45.7904 19.1119 45.1029 15.2888C44.3453 11.0884 41.0133 8.41431 36.7174 8.41431H31.1995C30.7994 8.41431 30.5999 8.41431 30.5003 8.51409C30.4012 8.61341 30.4012 8.81158 30.4012 9.20698ZM33.9895 22.8663C33.5546 22.8789 33.4143 22.7008 33.4143 22.2799C33.4269 20.4841 33.4466 13.3416 33.4269 11.5752C33.4227 11.1656 33.5392 11.0126 33.9601 11.0253C34.3605 11.0377 34.762 11.0331 35.1633 11.0284C36.071 11.0178 36.9784 11.0073 37.8743 11.195C40.3379 11.7113 42.0299 13.8003 42.1618 16.5263C42.2642 18.6504 41.6722 20.5177 39.896 21.8492C38.8508 22.6376 37.598 22.8214 36.3255 22.8565C35.9411 22.8669 35.5567 22.8639 35.1723 22.861C34.778 22.858 34.3838 22.8549 33.9895 22.8663Z" fill="white"/>
<path fill-rule="evenodd" clip-rule="evenodd" d="M77.7817 25.2451L77.6592 25.5053L80.5479 25.5039C80.8495 25.5039 80.973 25.3005 81.0782 25.062C81.1828 24.8268 81.2888 24.5923 81.3946 24.3579C81.621 23.8568 81.8471 23.3561 82.0603 22.8495C82.202 22.5114 82.4194 22.3893 82.7842 22.3893C85.0869 22.4024 87.3897 22.4024 89.6924 22.3893C90.0852 22.3879 90.3013 22.545 90.4416 22.893C90.585 23.2337 90.7391 23.5678 90.893 23.9015C91.063 24.2697 91.2326 24.6374 91.3872 25.0129C91.5345 25.3706 91.7436 25.5221 92.1336 25.5109C92.6077 25.5006 93.0825 25.5041 93.5575 25.5075C93.7951 25.5092 94.0327 25.5109 94.2703 25.5109C94.7782 25.5095 94.8132 25.4534 94.5874 24.9736C92.0751 19.6376 89.5638 14.304 87.0534 8.97276C86.8879 8.61921 86.7237 8.30494 86.2439 8.29512C85.7741 8.28591 85.6302 8.59401 85.4798 8.91596C85.4699 8.9372 85.4599 8.9585 85.4498 8.97977C83.4614 13.1889 78.7226 23.248 77.7817 25.2451ZM84.5138 17.3839C85.1113 16.091 85.71 14.7956 86.2361 13.4173C86.7664 14.7546 87.35 16.0123 87.9253 17.2522C88.2922 18.0429 88.6558 18.8263 88.9999 19.6184C89.0079 19.6368 89.0181 19.6569 89.0288 19.6777C89.0909 19.7997 89.1665 19.9481 88.8849 19.9481H83.36C83.7302 19.0794 84.1217 18.2322 84.5138 17.3839Z" fill="white"/>
<path fill-rule="evenodd" clip-rule="evenodd" d="M97.0893 14.266C96.3878 14.266 96.3878 14.2688 96.3878 14.9464C96.3878 15.5682 96.3886 16.7261 96.3896 18.1417C96.3928 22.5524 96.3977 29.4643 96.385 30.452C96.3794 30.8392 96.4804 31.0286 96.9195 30.9964C97.2855 30.97 97.6549 30.9762 98.0243 30.9825C98.186 30.9852 98.3477 30.9879 98.5091 30.9879C98.8634 30.9872 99.0426 30.9869 99.1332 30.8971C99.226 30.8053 99.226 30.6197 99.226 30.2444V24.9426C99.2264 24.906 99.2209 24.8662 99.2154 24.8258C99.1999 24.7126 99.1837 24.5949 99.2933 24.5329C99.4105 24.4666 99.5049 24.5535 99.5953 24.6365C99.6197 24.6589 99.6438 24.6811 99.6679 24.6998C102.002 26.5181 105.555 25.9709 107.207 23.5256C108.277 21.943 108.502 20.1851 108.108 18.3613C107.676 16.3508 106.573 14.8412 104.532 14.2464C102.583 13.6782 100.766 13.9812 99.24 15.4305C99.0371 15.6235 98.9358 15.7207 98.863 15.7026C98.7899 15.6844 98.7457 15.5498 98.6564 15.2789C98.3505 14.3488 98.2341 14.266 97.238 14.266H97.0893ZM105.41 19.8217C105.417 21.929 104.181 23.2899 102.258 23.2899C100.404 23.2899 99.1263 21.8785 99.1249 19.8344C99.1249 17.8309 100.441 16.4546 102.341 16.4546C104.118 16.4546 105.403 17.8688 105.41 19.8217Z" fill="white"/>
<path fill-rule="evenodd" clip-rule="evenodd" d="M111.413 14.266C110.712 14.266 110.712 14.2688 110.712 14.9464C110.711 15.7125 110.712 17.2926 110.713 19.1657C110.716 23.5494 110.72 29.5379 110.709 30.452C110.703 30.8392 110.803 31.0286 111.242 30.9964C111.609 30.97 111.978 30.9762 112.347 30.9825C112.508 30.9852 112.67 30.9879 112.831 30.9879C113.187 30.9872 113.366 30.9869 113.457 30.8969C113.55 30.805 113.55 30.6195 113.55 30.2444V24.9426C113.55 24.9065 113.544 24.8673 113.538 24.8274C113.522 24.7137 113.506 24.5952 113.616 24.5329C113.733 24.4664 113.829 24.5539 113.92 24.6372C113.944 24.6594 113.968 24.6813 113.992 24.6998C116.326 26.5181 119.878 25.9709 121.53 23.5256C122.599 21.943 122.826 20.1851 122.432 18.3613C122 16.3508 120.896 14.8412 118.856 14.2464C116.906 13.6782 115.09 13.9812 113.564 15.4305C113.36 15.6236 113.259 15.7207 113.186 15.7026C113.113 15.6844 113.069 15.5497 112.98 15.2789C112.674 14.3488 112.556 14.266 111.562 14.266H111.413ZM119.739 19.8217C119.746 21.929 118.51 23.2899 116.586 23.2899C114.729 23.2899 113.452 21.8785 113.453 19.8344C113.452 17.8309 114.769 16.4546 116.667 16.4546C118.445 16.4546 119.732 17.8688 119.739 19.8217Z" fill="white"/>
<path fill-rule="evenodd" clip-rule="evenodd" d="M57.9795 25.5879C59.0388 25.3705 59.8764 24.7798 60.6452 23.9268C60.7252 24.1667 60.7813 24.3365 60.836 24.5133C61.1573 25.4813 61.3354 25.6034 62.34 25.543C62.9783 25.5038 63.0232 25.4589 63.0232 24.7953C63.022 24.4623 63.0209 24.1293 63.0197 23.7963C63.0128 21.8014 63.006 19.8058 62.9867 17.8113C62.9713 16.0618 61.8756 14.6953 60.1541 14.2744C57.9936 13.7483 55.9593 14.2337 53.9727 15.0755C53.7328 15.1765 53.6682 15.3519 53.7664 15.5974C53.9671 16.1025 54.1635 16.6076 54.3515 17.1168C54.4244 17.3189 54.5058 17.3483 54.7134 17.2571C55.2397 17.0122 55.7873 16.8159 56.3493 16.6707C57.2612 16.4546 58.1675 16.3073 59.0851 16.6272C59.7964 16.8755 60.1822 17.3988 60.199 18.1003C60.2075 18.4567 60.084 18.6405 59.7066 18.5829C59.0121 18.4805 58.3191 18.545 57.6288 18.6208C56.2749 18.7709 55.0039 19.1217 54.0218 20.1641C52.3747 21.9192 53.0341 24.8598 55.2311 25.4953C56.126 25.7503 57.0696 25.7821 57.9795 25.5879ZM59.0842 20.4138V20.3984L59.1333 20.3941C59.8095 20.4165 60.1351 20.3883 60.2446 20.5287C60.3547 20.6696 60.2469 20.9805 60.0578 21.6835C59.7183 22.9391 58.5314 23.6715 57.2084 23.5606C56.6907 23.5129 56.2348 23.3404 56.0257 22.8115C55.7907 22.2847 55.8953 21.6683 56.2909 21.2485C56.8338 20.6284 57.5774 20.4895 58.342 20.4138C58.5892 20.4012 58.837 20.4012 59.0842 20.4138Z" fill="white"/>
<path d="M66.0071 14.9492C66.0071 14.3053 66.0394 14.273 66.6637 14.2477C67.8366 14.1944 67.8744 14.2197 68.2911 15.3701C68.4581 15.8303 68.5268 15.8429 68.8439 15.4767C70.1512 13.9867 72.2784 13.5255 74.0854 14.3403C75.3803 14.938 75.9092 16.0323 76.1042 17.3609C76.2852 18.6446 76.1828 19.934 76.1996 21.2205C76.2151 22.4747 76.1912 23.7304 76.2095 24.986C76.2095 25.3705 76.0804 25.5262 75.6946 25.515C75.1151 25.4995 74.5343 25.4953 73.9563 25.515C73.548 25.5304 73.3951 25.3676 73.3951 24.965C73.4119 23.8581 73.4849 19.363 73.339 18.2308C73.1482 16.7576 72.0763 16.1263 70.6453 16.5907C69.6217 16.9151 68.9056 17.839 68.8467 18.9112C68.7513 20.7224 68.7695 22.5393 68.8257 24.3519C68.8607 25.4911 68.8846 25.5065 67.7356 25.5065C67.3371 25.5065 66.9387 25.4841 66.543 25.5065C66.0702 25.5416 66.0001 25.2849 66.0015 24.9019C66.0113 23.2239 66.0057 16.5837 66.0071 14.9492Z" fill="white"/>
<path d="M128.368 25.7296C126.901 25.7044 125.644 25.4196 124.467 24.791C124.077 24.582 123.956 24.3702 124.23 23.9843C124.418 23.6939 124.592 23.3942 124.75 23.0864C125.077 22.5098 125.083 22.4958 125.694 22.8059C126.428 23.1922 127.242 23.4008 128.071 23.4147C128.302 23.4275 128.534 23.4095 128.76 23.3614C129.242 23.2338 129.677 22.9981 129.767 22.4565C129.85 21.9458 129.505 21.6386 129.118 21.3804C128.659 21.076 128.135 20.9048 127.635 20.7042C126.935 20.448 126.274 20.0968 125.67 19.6604C123.761 18.2069 124.095 15.4515 126.3 14.5199C128.214 13.709 130.051 14.0415 131.845 14.9198C132.065 15.0264 132.134 15.1751 132.019 15.3982C131.799 15.8238 131.581 16.2484 131.364 16.6721C131.205 16.9821 130.977 16.9092 130.734 16.7984C130.044 16.4716 129.287 16.3111 128.524 16.3298C127.795 16.3522 127.247 16.6496 127.145 17.0888C127.048 17.5012 127.384 17.9979 128.051 18.315C128.719 18.632 129.454 18.886 130.143 19.2072C131.066 19.6422 131.909 20.1739 132.346 21.1714C132.627 21.8397 132.657 22.5875 132.429 23.2758C131.989 24.6395 130.941 25.414 129.505 25.6174C129.08 25.6847 128.649 25.7044 128.368 25.7296Z" fill="white"/>
<path d="M47.9048 14.934C47.9048 14.2788 47.9161 14.2704 48.5642 14.2577C49.1254 14.2465 49.6866 14.2802 50.2478 14.2577C50.6533 14.2409 50.7473 14.4064 50.7458 14.7852C50.7318 17.7217 50.7992 24.1949 50.7992 24.8319C50.7992 25.4688 50.4891 25.5544 50.1159 25.5544C49.7427 25.5544 48.8462 25.5179 48.5306 25.5179C48.2149 25.5179 47.895 25.3776 47.895 24.8894C47.895 24.4012 47.9006 16.5684 47.9048 14.934Z" fill="white"/>
<path d="M21.873 21.0143C21.5629 21.0143 21.4142 20.9161 21.417 20.5934C21.4245 19.6039 21.4245 18.6143 21.417 17.6247C21.417 17.3343 21.5377 17.2039 21.8379 17.2039H24.8641C25.1756 17.2039 25.285 17.375 25.2696 17.636C25.2696 18.6377 25.2696 19.6198 25.2696 20.599C25.2696 20.9133 25.1181 21.0129 24.8052 21.0199L21.873 21.0143Z" fill="white"/>
<path d="M51.0572 10.3546C51.0572 11.383 50.4427 11.9792 49.3737 11.9862C48.3046 11.9933 47.6059 11.3395 47.6143 10.3363C47.6228 9.33323 48.2962 8.69909 49.3302 8.69909C50.4062 8.68927 51.0544 9.31218 51.0572 10.3546Z" fill="white"/>
</svg>
