<svg width="140" height="70" viewBox="0 0 140 70" fill="none" xmlns="http://www.w3.org/2000/svg">
<rect x="53" width="35" height="70" fill="#383838"/>
<rect x="55.0781" y="2.40625" width="30.9531" height="65.2969" rx="2.96875" fill="white"/>
<path fill-rule="evenodd" clip-rule="evenodd" d="M62.5707 6.02446C62.4898 6.54508 62.5007 22.6571 62.586 23.134C62.7021 23.1826 62.8262 23.1793 62.949 23.1761C62.9835 23.1751 63.0179 23.1742 63.0519 23.1745H70.0519C71.0535 23.1846 72.0511 23.0494 73.0138 22.7731C75.4594 22.049 77.1318 20.5013 77.9444 18.083C78.6259 16.0498 78.6532 13.9618 78.2004 11.8837C77.7782 9.92258 76.749 8.32789 75.0285 7.22649C73.6384 6.33618 72.0885 5.95446 70.4665 5.92711C68.6787 5.89736 66.8893 5.90572 65.1017 5.91408C64.3926 5.9174 63.6837 5.92071 62.9754 5.92164C62.9521 5.92164 62.9284 5.92072 62.9047 5.91979C62.7846 5.9151 62.662 5.91031 62.5707 6.02446ZM67.1344 19.2501V9.82421C67.4725 9.8252 67.8056 9.81587 68.1347 9.80666C68.8928 9.78543 69.6295 9.7648 70.3555 9.87233C72.286 10.1567 73.5996 11.2505 73.8796 13.438C74.0057 14.4126 73.962 15.4018 73.7505 16.3616C73.4323 17.813 72.5332 18.7186 71.0698 19.0467C70.5585 19.1755 70.0339 19.2438 69.5068 19.2501H67.1344Z" fill="#383838"/>
<path d="M77.4423 60.2933V64.1072C77.0573 64.2166 64.0548 64.2373 63.5396 64.1323C63.4423 63.7342 63.4204 47.5981 63.5167 47.002C63.906 46.8926 76.599 46.8719 77.229 46.9878V50.4878C76.7248 50.6037 76.2173 50.525 75.7164 50.5392C75.2154 50.5534 74.6959 50.5392 74.1851 50.5392H68.0798C67.9496 50.9537 67.931 52.9192 68.0514 53.5416C70.8153 53.5416 73.5923 53.4387 76.3562 53.5766C76.4951 53.9637 76.5181 56.428 76.3825 57.0645C75.0032 57.082 73.6065 57.0711 72.2098 57.0733H68.071C67.9485 57.5162 67.931 59.6983 68.0339 60.2933H72.7206C74.2814 60.2922 75.8432 60.29 77.4423 60.2933Z" fill="#383838"/>
<path d="M77.1636 31.5941H72.7602C72.6508 31.5088 72.6661 31.4104 72.6508 31.324C72.4867 30.3691 71.8403 29.8824 70.9675 29.6833C70.3506 29.5313 69.7152 29.4744 69.0797 29.6407C68.7968 29.7103 68.5273 29.8264 68.2823 29.9841C67.8451 30.2762 67.6388 30.8118 67.7672 31.3218C67.823 31.5536 67.9925 31.6915 68.1675 31.8194C68.6148 32.1476 69.1278 32.3335 69.6539 32.4855C70.8942 32.8443 72.1695 33.0641 73.3989 33.4699C74.4062 33.798 75.3764 34.2104 76.2022 34.8983C77.1297 35.6727 77.6634 36.6483 77.7116 37.869C77.74 38.5985 77.7214 39.3247 77.5016 40.0324C76.9755 41.731 75.7833 42.7668 74.1809 43.4132C73.3409 43.7522 72.4539 43.8802 71.5723 43.9436C70.3222 44.0344 69.0709 44.029 67.8186 43.7927C66.8867 43.6177 66.0216 43.3333 65.2406 42.8138C63.5519 41.6938 62.6758 40.1276 62.7053 38.0833C62.7103 38.0318 62.7206 37.9808 62.7359 37.9313C63.122 37.8219 66.5258 37.8033 67.1427 37.9018C67.2444 38.0549 67.252 38.2441 67.275 38.4169C67.4773 39.7185 68.2298 40.1921 69.3345 40.4393C70.1767 40.6263 71.0331 40.6351 71.8687 40.3376C72.4036 40.1472 72.8531 39.8607 73.0839 39.3171C73.3064 38.8393 73.192 38.2723 72.8017 37.9182C72.5086 37.6305 72.1455 37.461 71.7769 37.3046C70.7816 36.8846 69.7162 36.7096 68.6838 36.4197C67.4073 36.061 66.1266 35.7022 65.0328 34.9027C63.5497 33.8243 62.9634 32.3663 63.2369 30.5682C63.5409 28.5666 64.8512 27.4247 66.6144 26.6854C67.4478 26.3365 68.3381 26.2555 69.2208 26.1297C70.4119 25.9602 71.5887 26.1046 72.7383 26.3769C74.5003 26.7926 75.9102 27.7321 76.7261 29.411C77.0523 30.0906 77.2027 30.8413 77.1636 31.5941Z" fill="#383838"/>
<rect x="55.8594" y="3.1875" width="29.3906" height="63.7344" rx="2.1875" stroke="#515151" stroke-width="1.5625"/>
</svg>
