<svg width="140" height="70" viewBox="0 0 140 70" fill="none" xmlns="http://www.w3.org/2000/svg">
<path d="M34.4875 30.4885C34.4875 30.5713 34.4875 30.6155 34.4213 30.6155C33.9798 30.6155 33.6321 30.6155 33.3782 30.6155H31.8991H30.2986C30.0612 30.6155 29.7466 30.6155 29.3162 30.6155C29.272 30.6155 29.2555 30.5713 29.2555 30.4885C29.2555 30.4058 29.2555 30.3616 29.3162 30.3616C29.7087 30.3752 30.1015 30.3418 30.4862 30.2623C30.5956 30.2371 30.6977 30.1872 30.7848 30.1164C30.8718 30.0456 30.9415 29.9558 30.9884 29.8539C31.0944 29.5567 31.1412 29.2418 31.1264 28.9267V24.0699H23.3556V28.9267C23.3394 29.2414 23.3844 29.5562 23.488 29.8539C23.5356 29.9553 23.6055 30.0447 23.6925 30.1155C23.7794 30.1862 23.8812 30.2363 23.9903 30.2623C24.3767 30.3423 24.7714 30.3756 25.1658 30.3616C25.1989 30.3616 25.21 30.4058 25.21 30.4885C25.21 30.5713 25.21 30.6155 25.1658 30.6155C24.7243 30.6155 24.3766 30.6155 24.1283 30.6155H22.5608L21.1038 30.5934C20.8555 30.5934 20.5022 30.5934 20.0442 30.5934C20 30.6155 20 30.5713 20 30.4885C20 30.4058 20 30.3616 20.0442 30.3616C20.4312 30.375 20.8185 30.3416 21.1976 30.2623C21.3067 30.2363 21.4085 30.1862 21.4954 30.1155C21.5824 30.0447 21.6523 29.9553 21.6999 29.8539C21.8035 29.5562 21.8485 29.2414 21.8323 28.9267V19.2738C21.8486 18.9627 21.8036 18.6514 21.6999 18.3577C21.6495 18.2588 21.5786 18.1717 21.492 18.1023C21.4055 18.0328 21.3051 17.9825 21.1976 17.9548C20.826 17.8629 20.4432 17.8239 20.0607 17.8389C20.0607 17.8389 20 17.7947 20 17.7119C20 17.6291 20 17.5905 20.0386 17.5905L21.1038 17.6071C21.6888 17.6347 22.169 17.6512 22.5388 17.6512C22.9085 17.6512 23.488 17.6512 24.1227 17.6071H25.1438C25.1769 17.6071 25.1879 17.6457 25.1879 17.7285C25.1879 17.8113 25.1879 17.8554 25.1438 17.8554C24.7514 17.8373 24.3585 17.8801 23.9792 17.9824C23.8683 18.0125 23.7651 18.066 23.6766 18.1393C23.5881 18.2126 23.5163 18.304 23.466 18.4073C23.3623 18.7049 23.3174 19.0198 23.3335 19.3345V23.6063H31.1319V19.318C31.1467 19.0029 31.0999 18.6879 30.994 18.3908C30.9458 18.287 30.8753 18.1951 30.7875 18.1216C30.6998 18.0481 30.5969 17.9949 30.4862 17.9658C30.107 17.8632 29.7141 17.8203 29.3217 17.8389C29.2775 17.8389 29.261 17.7947 29.261 17.7119C29.261 17.6291 29.261 17.5905 29.3217 17.5905H30.3041C30.9112 17.6181 31.4465 17.6347 31.9046 17.6347C32.3627 17.6347 32.7766 17.6347 33.3837 17.5905H34.4268C34.471 17.5905 34.493 17.6291 34.493 17.7119C34.493 17.7947 34.493 17.8389 34.4268 17.8389C34.0296 17.8204 33.6318 17.8595 33.2457 17.9548C33.1375 17.9808 33.0364 18.0304 32.9496 18.1001C32.8628 18.1697 32.7924 18.2577 32.7435 18.3577C32.6373 18.6509 32.5904 18.9623 32.6055 19.2738V28.9267C32.5907 29.2418 32.6376 29.5567 32.7435 29.8539C32.7897 29.9563 32.8592 30.0465 32.9464 30.1174C33.0335 30.1883 33.136 30.2379 33.2457 30.2623C33.6248 30.3419 34.0121 30.3753 34.3992 30.3616C34.4654 30.3616 34.4875 30.4058 34.4875 30.4885Z" fill="white"/>
<path d="M46.3212 27.4365C46.404 27.4365 46.4482 27.4365 46.4482 27.5083C46.3207 28.4336 46.258 29.3668 46.2605 30.3009C46.2691 30.3881 46.2434 30.4752 46.1888 30.5437C46.1135 30.5975 46.0216 30.623 45.9294 30.6155H37.1099C37.0823 30.6155 37.0713 30.5713 37.0713 30.4886C37.0713 30.4058 37.0713 30.3616 37.1099 30.3616C37.4805 30.3732 37.8512 30.3399 38.2137 30.2623C38.3203 30.2368 38.4193 30.1866 38.5027 30.1156C38.5862 30.0446 38.6517 29.9549 38.6939 29.8539C38.7924 29.5551 38.8355 29.2409 38.8208 28.9267V19.2738C38.8356 18.9632 38.7926 18.6526 38.6939 18.3577C38.6489 18.259 38.5824 18.1717 38.4994 18.1019C38.4163 18.0322 38.3187 17.982 38.2137 17.9548C37.8531 17.8645 37.4815 17.8255 37.1099 17.8389C37.0823 17.8389 37.0713 17.7947 37.0713 17.7119C37.0713 17.6292 37.0713 17.5905 37.1099 17.5905H45.5706C45.5961 17.5868 45.6221 17.5891 45.6466 17.5972C45.6711 17.6054 45.6933 17.6191 45.7115 17.6373C45.7297 17.6555 45.7434 17.6777 45.7516 17.7022C45.7597 17.7267 45.762 17.7527 45.7583 17.7782L45.8024 20.3832C45.8024 20.4218 45.7638 20.4439 45.6865 20.4439C45.6093 20.4439 45.5706 20.4439 45.5706 20.3832C45.537 19.7275 45.264 19.107 44.8035 18.6391C44.3412 18.225 43.7347 18.009 43.1147 18.0376H41.9667C41.5184 17.9872 41.0657 18.082 40.6752 18.308C40.553 18.4504 40.4619 18.6167 40.4077 18.7963C40.3536 18.9759 40.3375 19.1649 40.3606 19.3511V23.6063H42.7614C43.2932 23.6553 43.8268 23.5335 44.2847 23.2586C44.4495 23.1191 44.5782 22.942 44.6599 22.7421C44.7416 22.5422 44.7738 22.3256 44.7538 22.1106C44.7538 22.1106 44.798 22.0665 44.8808 22.0665C44.9635 22.0665 45.0077 22.0665 45.0077 22.1106V23.8381C45.0077 24.2465 45.0077 24.5501 45.0077 24.7598V25.7974C45.0077 25.8305 44.9635 25.8415 44.8808 25.8415C44.798 25.8415 44.7538 25.8415 44.7538 25.7974C44.7767 25.5566 44.7466 25.3137 44.6655 25.0858C44.5845 24.8579 44.4545 24.6506 44.2847 24.4783C43.8266 24.1664 43.2749 24.0221 42.7228 24.0699H40.3606V28.8439C40.3444 29.1275 40.3876 29.4114 40.4876 29.6773C40.5295 29.7684 40.5899 29.8498 40.665 29.9163C40.74 29.9828 40.8281 30.033 40.9236 30.0636C41.2352 30.1546 41.5596 30.1937 41.8839 30.1795H43.363C43.6997 30.1904 44.0352 30.134 44.3498 30.0136C44.6644 29.8933 44.9519 29.7114 45.1953 29.4786C45.731 28.9297 46.0821 28.2275 46.1998 27.4696C46.1998 27.4696 46.2384 27.431 46.3212 27.4365Z" fill="white"/>
<path d="M63.2258 30.4886C63.2258 30.5714 63.2258 30.6155 63.143 30.6155C62.8781 30.6155 62.4697 30.6155 61.9123 30.5714C61.3548 30.5272 60.9464 30.5327 60.6815 30.5327C60.4166 30.5327 59.9695 30.5327 59.4949 30.5714C59.0203 30.61 58.7057 30.6155 58.4518 30.6155C58.3966 30.6155 58.369 30.5714 58.369 30.4886C58.369 30.4058 58.369 30.3616 58.4518 30.3616C58.8247 30.3843 59.1987 30.3394 59.5556 30.2292C59.6552 30.1934 59.7404 30.126 59.7981 30.0373C59.8559 29.9487 59.8832 29.8435 59.8757 29.738C59.8424 29.4087 59.7429 29.0896 59.5832 28.7997L57.795 25.0523H52.8279L51.5971 27.9057C51.4286 28.2655 51.3366 28.6564 51.3267 29.0536C51.3267 29.9256 52 30.3616 53.3467 30.3616C53.4184 30.3616 53.4515 30.4058 53.4515 30.4886C53.4515 30.5714 53.4184 30.6155 53.3467 30.6155C53.0983 30.6155 52.7396 30.6155 52.2429 30.5714C51.7462 30.5272 51.255 30.5327 50.8686 30.5327C50.4823 30.5327 50.096 30.5327 49.5992 30.5714C49.1025 30.61 48.8266 30.6155 48.5341 30.6155C48.4623 30.6155 48.4292 30.5714 48.4292 30.4886C48.4292 30.4058 48.4623 30.3616 48.5341 30.3616C48.876 30.3718 49.2152 30.2978 49.522 30.1464C49.8421 29.9515 50.1108 29.6828 50.3057 29.3627C50.6325 28.8369 50.9115 28.2827 51.1391 27.707L55.5543 17.4084C55.5751 17.3859 55.601 17.3686 55.6298 17.3581C55.6585 17.3475 55.6894 17.344 55.7199 17.3477C55.8027 17.3477 55.8523 17.3477 55.8634 17.4084L60.8305 27.7456C61.1379 28.4853 61.5445 29.1797 62.0392 29.8097C62.1791 29.9794 62.3543 30.1166 62.5525 30.2119C62.7507 30.3072 62.9672 30.3583 63.1872 30.3616C63.1982 30.3616 63.2258 30.4058 63.2258 30.4886ZM52.9714 24.6108H57.5577L55.1404 19.5664L52.9714 24.6108Z" fill="white"/>
<path d="M68.1865 28.8439C68.1746 29.1264 68.2138 29.4087 68.3024 29.6772C68.3421 29.7674 68.4021 29.8472 68.4778 29.9104C68.5534 29.9736 68.6426 30.0184 68.7384 30.0415C69.0771 30.1159 69.4239 30.1474 69.7704 30.1353H71.7683C72.5266 30.1634 73.265 29.8895 73.8214 29.3737C74.3861 28.8128 74.7556 28.0853 74.8756 27.2985C74.8756 27.2599 74.9142 27.2378 74.9915 27.2489C75.0687 27.2599 75.1019 27.2765 75.1019 27.3206C74.9804 28.5017 74.9197 29.4896 74.9197 30.2788C74.9272 30.3651 74.9037 30.4512 74.8535 30.5217C74.819 30.5497 74.7793 30.5704 74.7366 30.5828C74.6939 30.5951 74.6492 30.5987 74.6051 30.5934H64.9358C64.9358 30.5934 64.8916 30.5493 64.8916 30.4665C64.8916 30.3837 64.8916 30.3395 64.9358 30.3395C65.3064 30.3512 65.677 30.3178 66.0396 30.2402C66.1451 30.214 66.243 30.1634 66.3255 30.0924C66.4079 30.0215 66.4725 29.9322 66.5142 29.8318C66.6154 29.5337 66.6585 29.2189 66.6411 28.9046V19.2738C66.6588 18.9631 66.6156 18.6519 66.5142 18.3577C66.4695 18.2598 66.4037 18.173 66.3217 18.1034C66.2397 18.0338 66.1434 17.983 66.0396 17.9548C65.6789 17.8645 65.3073 17.8255 64.9358 17.8389C64.9358 17.8389 64.8916 17.7947 64.8916 17.7119C64.8916 17.6291 64.8916 17.5905 64.9358 17.5905H65.9733C66.5584 17.6181 67.0385 17.6347 67.4138 17.6347C67.7891 17.6347 68.3079 17.6347 68.8929 17.5905H69.9139C69.9139 17.5905 69.9581 17.6291 69.9581 17.7119C69.9581 17.7947 69.9581 17.8389 69.9139 17.8389C69.5424 17.8257 69.1708 17.8647 68.8101 17.9548C68.7027 17.9831 68.603 18.035 68.518 18.1065C68.4331 18.1781 68.3651 18.2677 68.3189 18.3687C68.2232 18.668 68.1821 18.9821 68.1975 19.2959L68.1865 28.8439Z" fill="white"/>
<path d="M77.9883 18.6833C77.4397 19.3303 77.089 20.1216 76.9783 20.9627C76.9783 21.0068 76.9231 21.0234 76.8459 21.0179C76.7686 21.0124 76.73 21.0179 76.73 20.9627C76.7852 20.5763 76.8459 19.9527 76.9176 19.0917C76.9894 18.2307 77.0225 17.574 77.0225 17.1325C77.0225 17.0607 77.0611 17.0276 77.1439 17.0276C77.2267 17.0276 77.2708 17.0607 77.2708 17.1325C77.2708 17.436 77.6461 17.5905 78.3747 17.5905C79.5705 17.6273 80.9668 17.6476 82.5636 17.6512C83.386 17.6512 84.2525 17.6512 85.1686 17.6071H86.587C86.9579 17.6176 87.3286 17.5824 87.6908 17.5022C87.7983 17.4781 87.8978 17.4269 87.9799 17.3535C88.062 17.2801 88.124 17.1869 88.1599 17.0828C88.1599 17.0276 88.2151 17 88.2869 17C88.3586 17 88.3917 17.0276 88.3917 17.0828C88.3476 17.4857 88.3034 18.1093 88.2648 18.9482C88.2262 19.7871 88.2041 20.466 88.2041 20.9792C88.2041 20.9792 88.1655 21.0234 88.0882 21.0234C88.0109 21.0234 87.9668 21.0234 87.9502 20.9792C87.9804 20.1526 87.7186 19.3417 87.2107 18.6888C86.9376 18.4406 86.6164 18.2512 86.267 18.1325C85.9175 18.0138 85.5474 17.9684 85.1797 17.9989C84.7913 17.9877 84.4028 18.0173 84.0207 18.0873C83.9155 18.1038 83.8155 18.1442 83.7284 18.2054C83.6414 18.2667 83.5695 18.3471 83.5184 18.4405C83.4131 18.7262 83.368 19.0306 83.386 19.3346V28.9267C83.3681 29.2451 83.4131 29.5639 83.5184 29.8649C83.5743 29.9686 83.6531 30.0582 83.7487 30.1271C83.8443 30.1959 83.9542 30.2421 84.0703 30.2623C84.4996 30.3422 84.9363 30.3755 85.3728 30.3616C85.3728 30.3616 85.417 30.4058 85.417 30.4886C85.417 30.5714 85.417 30.6155 85.3728 30.6155C84.9037 30.6155 84.5284 30.6155 84.269 30.6155H82.6133H81.0293C80.7534 30.6155 80.3615 30.6155 79.8648 30.6155C79.8648 30.6155 79.8207 30.5714 79.8207 30.4886C79.8207 30.4058 79.8207 30.3616 79.8648 30.3616C80.2976 30.3742 80.7305 30.3409 81.1563 30.2623C81.2728 30.2394 81.3828 30.1909 81.4782 30.1203C81.5737 30.0496 81.6522 29.9586 81.7082 29.8539C81.8192 29.5579 81.868 29.2423 81.8517 28.9267V19.2739C81.8707 18.9806 81.8255 18.6868 81.7192 18.4129C81.6665 18.3218 81.594 18.2438 81.5071 18.1845C81.4202 18.1253 81.321 18.0864 81.217 18.0707C80.8147 17.9977 80.4058 17.9681 79.9973 17.9824C79.6325 17.958 79.2665 18.0074 78.9213 18.1279C78.5761 18.2483 78.2587 18.4372 77.9883 18.6833Z" fill="white"/>
<path d="M105.386 30.4885C105.386 30.5713 105.386 30.6155 105.325 30.6155C104.878 30.6155 104.53 30.6155 104.282 30.6155H102.803H101.197C100.96 30.6155 100.645 30.6155 100.22 30.6155C100.176 30.6155 100.159 30.5713 100.159 30.4885C100.159 30.4058 100.159 30.3616 100.22 30.3616C100.614 30.3756 101.009 30.3423 101.396 30.2623C101.505 30.2363 101.606 30.1862 101.693 30.1155C101.78 30.0447 101.85 29.9553 101.898 29.8539C102.001 29.5562 102.046 29.2414 102.03 28.9267V24.0699H94.2594V28.9267C94.2432 29.2414 94.2882 29.5562 94.3918 29.8539C94.4395 29.9553 94.5093 30.0447 94.5963 30.1155C94.6833 30.1862 94.785 30.2363 94.8941 30.2623C95.2806 30.3423 95.6752 30.3756 96.0696 30.3616C96.0696 30.3616 96.1138 30.4058 96.1138 30.4885C96.1138 30.5713 96.1138 30.6155 96.0696 30.6155C95.6281 30.6155 95.2804 30.6155 95.0321 30.6155H93.4646H92.0076C91.7593 30.6155 91.406 30.6155 90.9424 30.6155C90.9424 30.6155 90.9038 30.5713 90.9038 30.4885C90.9038 30.4058 90.9038 30.3616 90.9424 30.3616C91.3314 30.3752 91.7205 30.3419 92.1014 30.2623C92.2105 30.2363 92.3123 30.1862 92.3992 30.1155C92.4862 30.0447 92.5561 29.9553 92.6037 29.8539C92.7073 29.5562 92.7523 29.2414 92.7361 28.9267V19.2738C92.7524 18.9627 92.7074 18.6514 92.6037 18.3577C92.5533 18.2588 92.4824 18.1717 92.3958 18.1023C92.3093 18.0328 92.2089 17.9825 92.1014 17.9548C91.7298 17.8629 91.3471 17.8239 90.9645 17.8389C90.9369 17.8389 90.9259 17.7947 90.9259 17.7119C90.9259 17.6291 90.9259 17.5905 90.9645 17.5905H92.0297C92.6092 17.6181 93.0894 17.6347 93.4646 17.6347C93.8399 17.6347 94.4084 17.6347 95.0486 17.5905H96.0696C96.0696 17.5905 96.1138 17.6291 96.1138 17.7119C96.1138 17.7947 96.1138 17.8389 96.0696 17.8389C95.6772 17.8207 95.2844 17.8635 94.9051 17.9658C94.7942 17.9959 94.691 18.0495 94.6025 18.1228C94.514 18.196 94.4421 18.2874 94.3918 18.3908C94.2882 18.6884 94.2432 19.0033 94.2594 19.318V23.6063H102.03V19.318C102.046 19.0033 102.001 18.6884 101.898 18.3908C101.848 18.2868 101.777 18.1949 101.688 18.1215C101.6 18.0481 101.496 17.9949 101.384 17.9658C101.005 17.8635 100.612 17.8207 100.22 17.8389C100.176 17.8389 100.159 17.7947 100.159 17.7119C100.159 17.6291 100.159 17.5905 100.22 17.5905H101.197C101.809 17.6181 102.345 17.6347 102.803 17.6347C103.178 17.6347 103.669 17.6347 104.282 17.5905H105.325C105.369 17.5905 105.386 17.6291 105.386 17.7119C105.386 17.7947 105.386 17.8389 105.325 17.8389C104.937 17.8231 104.549 17.8621 104.172 17.9548C104.063 17.9808 103.962 18.0304 103.875 18.1001C103.789 18.1697 103.718 18.2577 103.669 18.3577C103.561 18.6502 103.514 18.9622 103.531 19.2738V28.9267C103.514 29.2419 103.561 29.5574 103.669 29.8539C103.716 29.9563 103.785 30.0465 103.872 30.1174C103.959 30.1883 104.062 30.2379 104.172 30.2623C104.551 30.3419 104.938 30.3753 105.325 30.3616C105.369 30.3616 105.386 30.4058 105.386 30.4885Z" fill="white"/>
<path d="M120 17.7119C120 17.7947 120 17.8389 119.956 17.8389C119.396 17.8665 118.86 18.0736 118.427 18.4294C117.851 18.8714 117.366 19.4205 116.998 20.0465L114.31 24.2134V28.9267C114.292 29.2442 114.333 29.5623 114.431 29.8649C114.475 29.962 114.54 30.0481 114.621 30.1168C114.702 30.1856 114.797 30.2353 114.9 30.2623C115.263 30.3412 115.634 30.3746 116.004 30.3616C116.048 30.3616 116.07 30.4058 116.07 30.4885C116.07 30.5713 116.07 30.6155 116.004 30.6155C115.574 30.6155 115.243 30.6155 115.005 30.6155H113.526H112.086C111.826 30.6155 111.467 30.6155 111.026 30.6155C111.026 30.6155 110.982 30.5713 110.982 30.4885C110.982 30.4058 110.982 30.3616 111.026 30.3616C111.397 30.3732 111.767 30.3399 112.13 30.2623C112.236 30.2352 112.335 30.1844 112.419 30.1137C112.504 30.043 112.571 29.9542 112.615 29.8539C112.724 29.5574 112.771 29.2419 112.753 28.9267V24.55L109.409 19.5498C109.109 19.0415 108.722 18.5895 108.266 18.2142C107.933 17.9703 107.531 17.8388 107.118 17.8389C107.074 17.8389 107.052 17.7947 107.052 17.7119C107.052 17.6291 107.052 17.5905 107.118 17.5905H107.847C108.178 17.6181 108.399 17.6347 108.576 17.6347C109.05 17.6347 109.679 17.6347 110.413 17.5905H111.578C111.578 17.5905 111.617 17.6291 111.617 17.7119C111.617 17.7947 111.617 17.8389 111.578 17.8389C110.899 17.8389 110.557 17.9989 110.557 18.319C110.58 18.5203 110.658 18.7112 110.783 18.8709L114.056 23.7277L116.473 19.9361C116.743 19.5526 116.908 19.1057 116.953 18.6391C116.953 18.0872 116.578 17.8499 115.85 17.8499C115.85 17.8499 115.811 17.8058 115.811 17.723C115.811 17.6402 115.811 17.6016 115.85 17.6016H116.854C117.406 17.6291 117.908 17.6457 118.355 17.6457C118.587 17.6457 118.874 17.6457 119.205 17.6016H119.978C119.978 17.6016 120 17.6291 120 17.7119Z" fill="white"/>
<path d="M76.393 33.0438C76.2814 33.4066 76.1893 33.775 76.1171 34.1476C75.99 34.5518 75.99 34.9853 76.1171 35.3894C75.9625 35.4777 75.8687 35.6047 75.7418 35.6654C75.7488 35.7212 75.7697 35.7743 75.8025 35.8199C75.8356 35.853 75.9294 35.8199 75.9294 35.8199C75.9901 35.6654 76.0508 35.5108 76.084 35.3894C76.2716 35.0141 76.4261 34.672 76.6083 34.2856C76.6232 34.1924 76.6232 34.0974 76.6083 34.0041C76.3599 33.8496 76.4206 33.7282 76.6083 33.6013C76.7071 33.5661 76.7899 33.4966 76.8416 33.4054C76.8933 33.3141 76.9104 33.2073 76.8897 33.1045C76.8829 32.7442 76.9807 32.3895 77.1712 32.0835C77.3589 31.7217 77.4945 31.3353 77.5741 30.9356C77.7977 30.1757 78.0877 29.437 78.4406 28.7279C78.5273 28.5067 78.5992 28.2799 78.6558 28.0491C78.7497 27.8614 78.8766 27.6462 78.998 27.4254H78.9649C79.1381 27.2113 79.2949 26.9843 79.434 26.7466C79.6983 26.2923 80.0212 25.8748 80.3943 25.5048V25.5379C80.6096 25.4441 80.7641 25.2564 81.0456 25.2896C81.3271 25.3227 81.5975 25.4772 81.5423 25.571C81.4871 25.6649 81.3546 25.8139 81.2608 25.9408C80.876 26.2486 80.5681 26.6416 80.3612 27.0888C79.7707 28.1429 79.2574 29.1639 78.7497 30.2181C78.6558 30.4333 78.5951 30.6541 78.5013 30.9024C78.3799 31.3329 78.2253 31.8296 78.0708 32.2932C77.4472 34.0317 76.7959 35.831 76.1447 37.597C76.0439 37.8974 75.8507 38.1582 75.5928 38.3421C75.532 38.3697 75.4989 38.4967 75.4989 38.5905C75.4899 38.9615 75.4474 39.3309 75.372 39.6943C74.9415 41.5542 74.4448 43.3534 74.1026 45.1857C73.8545 46.4153 73.6703 47.6569 73.5507 48.9056C73.51 49.1538 73.5045 49.4064 73.5341 49.6562V49.9708C73.6887 49.9708 73.6887 49.8162 73.7218 49.7224C73.8763 49.5679 73.937 49.3195 74.1247 49.1705C74.6503 48.6813 75.1087 48.1245 75.4879 47.5148C75.6407 47.2001 75.8635 46.9245 76.1391 46.709C76.3544 46.4882 76.542 46.2454 76.7573 45.997C76.7904 45.9308 76.818 45.8425 76.8511 45.7763C76.9449 45.561 77.254 45.5942 77.3147 45.2796C77.3754 44.965 77.6238 44.8767 77.7783 44.6945C77.9328 44.5124 78.0598 44.2917 78.2143 44.104C78.275 43.9771 78.402 43.8888 78.4627 43.7618C78.6172 43.6073 78.7386 43.6404 78.8656 43.7949H78.8048V43.7618C79.3568 43.1106 79.9087 42.4317 80.4164 41.8081C80.7104 41.4557 81.0679 41.1618 81.4705 40.9416L81.5368 41.0023C81.5732 40.9803 81.6158 40.9707 81.6582 40.9747H82.0004C81.8734 41.1292 81.7851 41.2838 81.6582 41.4383C81.443 41.5928 81.3822 41.935 81.0069 41.935H81.0401C81.0401 42.1503 81.1615 42.3655 80.8855 42.52V42.5532C80.6372 42.3048 80.5102 42.52 80.4164 42.6801C80.3833 42.7132 80.3557 42.7132 80.3833 42.7408C80.4109 42.7684 80.4164 42.7739 80.4164 42.8346C80.2784 43.2692 80.0593 43.6737 79.7707 44.0267C79.4441 44.5267 79.1456 45.0445 78.8766 45.5776C77.9108 47.1285 76.9504 48.7069 75.9625 50.2302C75.5265 50.909 75.0298 51.5603 74.5662 52.2446C74.3786 52.493 74.1633 52.7965 73.8543 52.7689C73.5452 52.7413 73.043 52.9235 72.6732 52.6144C72.5794 52.5206 72.4248 52.5537 72.331 52.5206C72.2372 52.4875 72.2372 52.493 72.1765 52.493L72.1489 52.5537C72.055 52.6144 71.9281 52.6475 71.8343 52.7082C71.7754 52.5861 71.6737 52.49 71.5485 52.4381C71.4233 52.3862 71.2834 52.3821 71.1554 52.4267C70.8464 52.493 70.7525 52.2446 70.5649 52.1177C70.4517 52.0783 70.3544 52.0032 70.2877 51.9036C70.221 51.804 70.1885 51.6854 70.1951 51.5658C70.1765 51.4022 70.1239 51.2442 70.0406 51.1022C69.8147 50.4017 69.771 49.6552 69.9136 48.9332C70.1951 48.6848 69.8529 48.4641 69.9136 48.2488C69.9744 48.0336 70.2503 47.9398 70.2227 47.6583C70.1896 47.5976 70.2227 47.5645 70.2227 47.5037C70.1396 47.1374 70.1607 46.755 70.2834 46.3999C70.4048 45.7763 70.438 45.0974 70.5318 44.4462C70.5318 44.38 70.438 44.3193 70.4048 44.2585H70.438C70.5811 43.8727 70.634 43.4593 70.5925 43.0499C70.5786 42.9566 70.5786 42.8617 70.5925 42.7684C70.9678 41.5928 71.1444 40.3511 71.6963 39.2031C71.6963 39.1424 71.7625 39.0817 71.7625 38.9878C71.9575 38.1408 72.2482 37.3187 72.629 36.5374C72.629 36.4436 72.7228 36.3553 72.7504 36.2614C72.9789 35.9384 73.1766 35.5948 73.341 35.2349C73.4691 34.8599 73.5778 34.4786 73.6666 34.0924C73.9114 33.3366 74.2371 32.6094 74.638 31.9235C74.8419 31.5526 75.0262 31.1713 75.1899 30.781C75.2561 30.6541 75.2837 30.5327 75.4106 30.4664C75.4424 30.4243 75.4845 30.391 75.5328 30.3698C75.5811 30.3485 75.634 30.34 75.6866 30.345C75.7197 30.345 75.7804 30.4664 75.7804 30.5327C75.7702 30.5633 75.7671 30.5959 75.7715 30.6279C75.776 30.6599 75.7877 30.6904 75.8059 30.7171C75.824 30.7438 75.8481 30.766 75.8762 30.7819C75.9044 30.7977 75.9358 30.8069 75.9681 30.8086C75.9681 30.9356 75.9349 31.0239 75.7804 31.0239C75.6259 31.0239 75.4713 31.0901 75.3775 31.2722C75.2837 31.6144 75.1623 31.9566 75.0684 32.2656C75.0771 32.3702 75.1197 32.4691 75.1899 32.5471H75.1623C75.2353 32.7096 75.2679 32.8873 75.2573 33.0651C75.2467 33.2429 75.1933 33.4155 75.1016 33.5681C75.0549 33.774 74.9807 33.9727 74.8808 34.1587C74.6987 34.4677 74.8201 34.683 75.0353 34.9313C75.012 34.9326 74.9892 34.9387 74.9683 34.9491C74.9475 34.9596 74.9289 34.9742 74.9139 34.9921C74.9174 35.0172 74.929 35.0404 74.947 35.0583C74.9746 34.9921 74.9746 34.9313 75.0077 34.9038C75.0408 34.8762 75.1899 34.7161 75.2561 34.6223C75.3467 34.4119 75.4188 34.194 75.4713 33.971L75.532 33.9434C75.5405 33.8953 75.5637 33.851 75.5983 33.8165C75.5983 33.8165 75.659 33.7834 75.6866 33.7558C75.7804 33.6288 75.7197 33.5681 75.6866 33.4743C75.7804 33.2591 75.9018 33.0714 75.9956 32.8562L76.0288 32.8231L75.9956 32.8838C75.808 32.7016 75.808 32.4809 75.9956 32.4809C76.3654 32.4809 76.4317 32.1442 76.6469 32.078C76.6745 32.4367 76.4537 32.7016 76.393 33.0438ZM70.4104 44.2641L70.3497 44.3248C70.3497 44.3248 70.3497 44.3248 70.3497 44.2641H70.4104ZM70.6918 51.1132H70.7194C70.7064 51.193 70.7137 51.2748 70.7407 51.351C70.7677 51.4273 70.8136 51.4954 70.874 51.5492C70.9408 51.6655 70.9927 51.7897 71.0285 51.919H71.0947C71.0947 51.919 71.0947 51.8583 71.0947 51.8307C70.9947 51.7451 70.9023 51.6509 70.8188 51.5492C70.8446 51.4792 70.8649 51.4072 70.8795 51.334C70.9402 51.207 70.8188 51.1463 70.6918 51.1463V51.1132ZM71.3707 52.8572C71.31 52.8241 71.2493 52.8241 71.2161 52.7965C71.183 52.7689 71.1554 52.7303 71.1554 52.7027H71.2493C71.31 52.7634 71.31 52.8241 71.3431 52.8572H71.3707ZM71.3707 52.8572H71.6797C71.5583 52.9455 71.4645 53.0394 71.3707 52.8572ZM71.6797 52.8572C71.7151 52.7917 71.7688 52.738 71.8343 52.7027C71.7688 52.738 71.7151 52.7917 71.6797 52.8572ZM72.3641 52.7027C72.3641 52.7027 72.331 52.7027 72.331 52.7303C72.331 52.7579 72.2096 52.7027 72.1765 52.7027C72.1515 52.6553 72.1419 52.6013 72.1489 52.5482L72.1765 52.4875C72.2285 52.4937 72.28 52.5029 72.331 52.515C72.3267 52.5776 72.338 52.6402 72.3641 52.6972V52.7027ZM74.4393 34.1918C74.4635 34.144 74.4749 34.0908 74.4724 34.0373C74.4393 34.0704 74.3786 34.0704 74.3786 34.1311C74.3521 34.1678 74.3403 34.2131 74.3455 34.258C74.3455 34.2856 74.3455 34.2856 74.3455 34.3187C74.3455 34.3518 74.3455 34.2856 74.3455 34.258C74.3804 34.2393 74.412 34.2151 74.4393 34.1863V34.1918ZM74.8146 33.3253C74.7605 33.3644 74.7089 33.4068 74.66 33.4522C74.6269 33.4522 74.66 33.5129 74.66 33.5461C74.66 33.5792 74.7207 33.5461 74.7207 33.5129C74.7533 33.4546 74.7757 33.3911 74.787 33.3253L74.8146 33.2922V33.3253ZM75.1236 32.5526C75.1405 32.4999 75.1608 32.4482 75.1843 32.3981C75.1843 32.4588 75.1512 32.4864 75.1512 32.5526H75.1236ZM75.4934 37.0451C75.5678 36.9498 75.6308 36.8461 75.6811 36.7361C75.7142 36.703 75.6479 36.6147 75.6204 36.6147C75.5928 36.6147 75.5265 36.6147 75.4934 36.6754C75.4479 36.765 75.4073 36.8572 75.372 36.9513C75.372 36.9844 75.4327 37.0175 75.4327 37.0451H75.4934ZM75.4327 33.9766C75.4182 33.9258 75.4071 33.8742 75.3996 33.822H75.4658V33.7889C75.4686 33.8422 75.4686 33.8956 75.4658 33.949L75.4327 33.9766ZM75.4658 33.822C75.498 33.7002 75.5502 33.5845 75.6204 33.4798C75.6204 33.5737 75.6204 33.6344 75.6204 33.7613C75.6204 33.7889 75.5596 33.822 75.532 33.822C75.5149 33.8247 75.4973 33.8231 75.481 33.8173C75.4646 33.8115 75.4499 33.8018 75.4382 33.7889L75.4658 33.822ZM76.4868 29.7324C76.4868 30.0083 75.9901 30.2567 75.7418 30.1353C75.7104 30.0964 75.6885 30.0506 75.678 30.0018C75.6674 29.9529 75.6685 29.9022 75.6811 29.8538C75.8481 29.4155 76.0667 28.9987 76.3323 28.612C76.6083 28.1815 76.7352 27.591 77.265 27.3758C77.2778 27.3344 77.2778 27.2902 77.265 27.2488C77.265 26.7852 77.5465 26.8183 77.8169 26.8183C77.8169 26.8459 77.8169 26.9066 77.8169 26.9398C77.8176 27.007 77.8388 27.0725 77.8776 27.1274C77.9384 27.0612 77.9715 27.0336 77.9715 26.9729C77.9715 26.9122 77.9715 26.8459 77.9715 26.8183L78.0046 26.7852C77.9876 26.8016 77.9761 26.8228 77.9715 26.8459H77.8169C77.8776 26.4154 77.9715 26.0401 78.5289 25.9794C78.7497 25.9794 78.7497 25.7311 78.8104 25.5434L78.7773 25.5765C78.9397 25.5057 79.0965 25.4227 79.2464 25.3282C79.3241 25.2692 79.4136 25.2274 79.5087 25.2055C79.6038 25.1836 79.7025 25.1822 79.7983 25.2013C79.9135 25.2153 80.0237 25.2567 80.1197 25.322C80.2157 25.3873 80.2947 25.4745 80.3502 25.5765V25.5379C80.1378 25.5042 79.9202 25.5332 79.7241 25.6215C79.528 25.7097 79.362 25.8533 79.2464 26.0346C78.7912 26.6521 78.387 27.3055 78.0377 27.9884C77.9163 28.2036 77.8501 28.3913 77.7617 28.5789C77.7039 28.6115 77.6401 28.6321 77.5741 28.6396C77.5134 28.5789 77.5134 28.4851 77.4803 28.4244H77.4472C77.5134 28.2974 77.5741 28.2036 77.6348 28.0822L77.6679 28.0491L77.6348 28.1098C77.4472 27.9884 77.3257 28.0215 77.2926 28.2367H77.3975C77.3037 28.2974 77.243 28.3306 77.2098 28.3913C77.1372 28.5473 77.096 28.7161 77.0884 28.888C76.7021 29.0756 76.4537 29.2578 76.4868 29.7269V29.7324ZM75.8356 36.1455C75.8185 36.1433 75.801 36.1452 75.7847 36.1509C75.7684 36.1567 75.7537 36.1662 75.7418 36.1787L75.7749 36.2118C75.7831 36.2195 75.7939 36.2239 75.8052 36.2239C75.8165 36.2239 75.8274 36.2195 75.8356 36.2118V36.1455ZM76.5476 31.2777C76.5476 31.2501 76.4537 31.1894 76.4537 31.1563L76.5476 31.0625C76.5807 31.0956 76.6083 31.1232 76.6083 31.1563C76.6083 31.1894 76.5807 31.2115 76.5476 31.2722V31.2777ZM76.6083 32.0559V32.0835V32.0559ZM76.7683 30.7203L76.7021 30.7534L76.7352 30.6927L76.7683 30.7203ZM77.0112 31.2722C76.9814 31.3411 76.9404 31.4045 76.8897 31.4599C76.8606 31.4434 76.8289 31.4322 76.7959 31.4267C76.8317 31.3408 76.8741 31.2577 76.9228 31.1784C76.9504 31.1839 77.0112 31.2115 77.0112 31.2446V31.2722ZM77.5079 28.452C77.4698 28.3795 77.4172 28.3156 77.3533 28.2643H77.3975C77.4583 28.3186 77.5104 28.3819 77.552 28.452H77.5079ZM77.5079 29.8759C77.541 29.8428 77.541 29.8428 77.541 29.8152V29.8759H77.5079ZM77.541 29.8759L77.5079 29.909V29.8759H77.541ZM77.6348 27.4585C77.6348 27.5193 77.5741 27.5524 77.6017 27.5524C77.6293 27.5524 77.6679 27.6462 77.7286 27.6462C77.7893 27.6462 77.7562 27.6131 77.8225 27.5524C77.7562 27.5248 77.6955 27.4696 77.6348 27.431V27.4585ZM77.7893 29.3461L77.7562 29.4399V29.3461H77.7893ZM78.3412 28.2423H78.3744C78.3105 28.3503 78.2587 28.4651 78.2198 28.5844C78.2253 28.452 78.2861 28.3582 78.3137 28.2367L78.3412 28.2423ZM78.3744 26.3823L78.4075 26.3216L78.3137 26.4154L78.3744 26.3823ZM78.3412 28.2423H78.3744C78.4075 28.1815 78.4075 28.0877 78.4351 28.027C78.4627 27.9663 78.4682 27.7455 78.6227 27.8062C78.6834 27.8394 78.6834 27.9939 78.6834 28.0877C78.5692 28.1573 78.4442 28.2077 78.3137 28.2367L78.3412 28.2423ZM78.838 25.5765C78.838 25.5434 78.838 25.5434 78.838 25.5158C78.838 25.4882 78.838 25.5434 78.8987 25.5434L78.838 25.5765ZM78.9925 27.4641C78.976 27.4481 78.9546 27.4384 78.9318 27.4365C78.9485 27.4346 78.9654 27.4361 78.9815 27.4409C78.9976 27.4456 79.0126 27.4535 79.0256 27.4641H78.9925ZM80.4495 42.6911V42.8126V42.8457V42.7187V42.6911ZM80.9186 42.5642H80.8855L80.9186 42.5311V42.5642ZM81.5037 40.9526C81.5482 40.8296 81.6115 40.7142 81.6913 40.6105C81.7529 40.595 81.8174 40.595 81.879 40.6105C81.8637 40.6493 81.8412 40.6848 81.8127 40.7153C81.7658 40.8009 81.7142 40.8838 81.6582 40.9637C81.6582 40.9637 81.5644 40.9913 81.5368 40.9913L81.5037 40.9526ZM82.2211 40.7981C82.1429 40.8427 82.0781 40.9075 82.0335 40.9857C82.0751 40.9156 82.1272 40.8524 82.188 40.7981H82.2211Z" fill="white"/>
<path d="M86.9629 43.6128C86.4873 43.8594 86.114 44.2659 85.9088 44.7608C85.8481 44.8822 85.7542 44.9153 85.6604 45.0092C85.3034 45.3855 84.9218 45.7377 84.518 46.0633C84.4242 46.124 84.3634 46.1847 84.3634 46.2785C84.2696 46.8304 83.8667 46.8304 83.5245 46.7753C82.8991 46.7639 82.2762 46.6918 81.6646 46.56C81.3689 46.5011 81.0978 46.3542 80.887 46.1385C80.6763 45.9228 80.5356 45.6484 80.4835 45.3513C80.1469 44.1427 80.5498 42.2827 81.0355 41.0741C81.2077 40.7515 81.3625 40.4199 81.4991 40.0806C81.7143 39.6778 81.9351 39.3025 82.1503 38.9327C82.2754 38.7469 82.4466 38.5967 82.647 38.4967C83.0499 38.3145 83.4859 38 83.9164 38.0938C83.9826 38.1269 84.1041 38.0938 84.1648 38.0331C84.4131 37.9393 84.5677 37.8178 84.7884 37.7516C85.0975 37.6909 85.2189 37.8785 85.0644 38.3035C84.9705 38.5188 84.7884 38.8554 84.816 38.9492C84.9098 39.3576 84.6946 39.6667 84.6615 40.053C84.5821 40.4109 84.4788 40.7631 84.3524 41.1072C84.1152 41.8287 83.9308 42.5665 83.8005 43.3148C83.8005 43.3755 83.8005 43.4693 83.8336 43.4693C83.8667 43.4693 83.9274 43.4693 83.9606 43.4693C84.1167 43.3722 84.2612 43.2574 84.391 43.1272C84.5066 42.9756 84.632 42.8318 84.7663 42.6967C84.9143 42.5163 85.0788 42.35 85.2575 42.2C85.4452 42.0454 85.4783 41.7364 85.6604 41.6481C85.9088 41.1845 86.4386 40.9085 86.6539 40.3456C86.9659 40.1635 87.232 39.9124 87.432 39.6115C87.5751 39.3524 87.7513 39.113 87.9563 38.8996C88.5745 38.0938 89.2257 37.288 89.8163 36.5153C89.9625 36.3717 90.1173 36.2372 90.2799 36.1124C90.3737 36.0793 90.5282 35.9855 90.5945 36.0462C90.7766 36.14 90.9035 35.9855 91.0857 35.9579C91.5217 35.8034 91.77 36.14 91.7093 36.6368C91.6762 36.6699 91.6762 36.7637 91.6155 36.8244C91.5445 36.9094 91.5008 37.0139 91.4899 37.1241C91.4791 37.2344 91.5017 37.3453 91.5548 37.4425C91.5665 37.5906 91.5458 37.7393 91.4941 37.8785C91.1795 39.3356 90.8704 40.7319 90.5945 42.1558C90.3846 43.3442 90.2702 44.5476 90.2523 45.7542V46.0302C90.2523 46.2509 90.3737 46.3117 90.5006 46.2178C90.9708 45.8873 91.2936 45.3863 91.4002 44.8215C91.4002 44.7884 91.4609 44.7608 91.5217 44.7608V44.7884L91.4941 44.7608C91.5824 44.6339 91.7093 44.5456 91.77 44.4517C92.0791 43.3479 93.9776 41.5046 94.375 40.5884C94.375 40.5553 94.4026 40.5553 94.4357 40.5222C94.6234 40.3069 94.9324 40.1193 95.087 40.2738C95.2415 40.4283 95.523 40.6767 95.3353 40.9582C94.5903 42.4483 95.2415 40.9582 94.4964 42.5697C93.8541 43.7733 93.1505 44.943 92.3882 46.0743C92.1122 46.4441 91.8031 46.7863 91.5548 47.1781C91.458 47.4061 91.2917 47.5977 91.0796 47.7255C90.8675 47.8534 90.6205 47.911 90.3737 47.8901C89.9101 47.8294 89.4741 47.7963 89.0712 47.7687C88.9167 47.7356 88.7621 47.6749 88.6076 47.6417C88.4717 47.5833 88.354 47.4895 88.2666 47.3701C88.1792 47.2507 88.1255 47.1101 88.1109 46.9629C87.9122 45.959 87.9122 44.9258 88.1109 43.9219C88.3592 42.9285 88.2047 42.9616 88.5138 41.5377C88.144 41.7529 88.2047 42.0344 87.9619 42.3711C87.7197 42.8126 87.3934 43.2026 87.0016 43.519C87.0942 43.3536 87.1665 43.1775 87.2168 42.9947V42.923H87.123C87.0318 43.0307 86.9487 43.145 86.8746 43.2651C86.7201 43.5135 86.9077 43.5135 87.0016 43.5411C86.996 43.5797 86.996 43.6128 86.9629 43.6128ZM87.1506 40.9802L87.1837 40.9471H87.1506V40.9802Z" fill="white"/>
<path d="M98.0331 40.2352C98.0019 40.2824 97.9794 40.3347 97.9668 40.3898C97.9668 40.5443 97.873 40.732 97.9392 40.7927C98.0938 40.9472 98.1876 40.6988 98.2759 40.605C99.1479 39.86 99.9813 39.0542 100.914 38.3974C101.124 38.2705 101.342 38.1562 101.565 38.0552C101.593 37.9945 101.753 38.0221 101.814 38.0883C101.869 38.1509 101.904 38.2283 101.915 38.3109C101.925 38.3935 101.911 38.4774 101.874 38.5519C101.716 38.6487 101.57 38.7635 101.438 38.8941C100.605 39.573 99.7826 40.2849 98.9603 40.9693C98.7252 41.1824 98.4763 41.3797 98.2152 41.5598C98.1375 41.6277 98.0774 41.7133 98.0399 41.8094C98.0024 41.9055 97.9887 42.0092 97.9999 42.1117C98.0331 42.763 98.0607 42.6636 98.1214 43.3204C98.4028 44.22 99.1479 45.2134 98.7119 45.4287C98.5574 45.4894 98.8996 45.6439 99.0541 45.5225C99.2086 45.4011 99.1479 45.4618 99.2693 45.3017C99.3336 45.211 99.4157 45.1344 99.5106 45.0765C99.6055 45.0186 99.7112 44.9807 99.8212 44.9651C99.8875 45.0258 99.9151 45.0258 99.9151 45.0589C99.9151 45.092 99.9151 45.1472 99.8875 45.1803C99.8599 45.2134 99.9482 45.0865 99.9758 45.0589C100.003 45.0313 100.07 44.9927 100.07 44.932C100.17 44.8691 100.264 44.797 100.351 44.7167C100.409 44.6601 100.461 44.5971 100.506 44.5291C100.599 44.496 100.627 44.4352 100.693 44.3414L100.754 44.22C100.721 44.2807 100.721 44.3414 100.693 44.3414C100.667 44.421 100.612 44.488 100.539 44.5291C100.482 44.597 100.419 44.6598 100.351 44.7167C100.196 44.7212 100.04 44.7101 99.8875 44.6836V44.7167C100.108 44.4154 100.356 44.1346 100.627 43.8778C101.096 43.3259 101.587 42.8237 102.056 42.327C102.084 42.2663 102.178 42.2331 102.178 42.2056C102.239 41.5212 102.956 41.2728 103.204 40.6547C103.234 40.5956 103.278 40.5447 103.332 40.5062C103.386 40.4677 103.448 40.4429 103.513 40.4339C103.747 40.3177 103.999 40.2447 104.259 40.2187C104.363 40.1917 104.474 40.1962 104.576 40.2315C104.678 40.2668 104.768 40.3314 104.834 40.4173C104.9 40.5031 104.939 40.6065 104.947 40.7144C104.954 40.8224 104.93 40.9302 104.877 41.0245C104.675 41.4853 104.448 41.9349 104.198 42.3711C103.795 42.8954 103.392 43.4749 102.962 44.0268C102.559 44.4904 102.09 44.8933 101.659 45.3625C101.505 45.5446 101.256 45.7653 101.069 45.9806C101.008 46.0818 100.921 46.1643 100.817 46.2189C100.713 46.2735 100.595 46.298 100.478 46.2897C100.202 46.2289 99.9261 46.4773 99.7053 46.2289C99.7808 46.1955 99.8457 46.1421 99.893 46.0744C100.23 46.0744 100.23 46.0744 100.202 45.7653C100.23 45.7322 100.323 45.6715 100.357 45.6108C100.323 45.6715 100.23 45.7322 100.202 45.7929C100.118 45.9045 100.024 46.008 99.9206 46.102C99.8267 46.1958 99.766 46.1958 99.7384 46.2621C99.4846 46.4166 99.1865 46.4773 99.0541 46.7864C98.9603 47.0016 98.8664 46.7533 98.745 46.7533C98.6512 46.8471 98.5905 46.974 98.4359 47.0347C98.1286 47.1147 97.8279 47.218 97.5363 47.3438C97.3039 47.4185 97.0527 47.4098 96.826 47.3191C96.5993 47.2284 96.4113 47.0615 96.2946 46.8471C96.2338 46.5987 96.0131 46.5049 95.9248 46.3504C95.7708 46.2042 95.6252 46.0494 95.4888 45.8868C95.4444 45.7909 95.3928 45.6987 95.3342 45.6108C95.1135 45.0589 95.0252 45.0589 94.683 45.517C94.4678 45.7929 94.2194 46.1351 93.971 46.4442C93.7595 46.737 93.531 47.0171 93.2867 47.2831C93.1897 47.4203 93.0649 47.5355 92.9203 47.6211C92.7757 47.7067 92.6147 47.7608 92.4478 47.7798C92.2868 47.793 92.1249 47.769 91.9747 47.7096C91.8244 47.6503 91.6898 47.5572 91.5813 47.4376C91.4875 47.3769 91.4875 47.1561 91.5206 47.0954C91.9235 46.4166 92.3871 46.1958 92.8231 45.5446C93.2591 44.8933 93.8165 44.5567 94.247 43.9661C94.3733 43.7767 94.4876 43.5794 94.5892 43.3756C94.6196 43.3468 94.6433 43.3116 94.6584 43.2725C94.6735 43.2334 94.6797 43.1915 94.6765 43.1497C94.6733 43.1079 94.6609 43.0674 94.64 43.031C94.6192 42.9947 94.5905 42.9634 94.5561 42.9396C94.5892 42.476 93.8441 40.8313 93.9379 40.4008C94.0052 40.2388 94.0294 40.0622 94.0081 39.8881C93.9868 39.714 93.9208 39.5484 93.8165 39.4074C93.7984 39.357 93.7915 39.3032 93.7963 39.2498C93.8011 39.1965 93.8174 39.1448 93.8441 39.0983C93.9127 39.0062 93.9573 38.8983 93.9737 38.7846C93.99 38.6709 93.9778 38.5549 93.9379 38.4471C93.9172 38.04 93.96 37.6323 94.0649 37.2384C94.0649 37.1777 94.1863 37.0839 94.1863 37.0839C94.2176 37.0864 94.2471 37.1 94.2693 37.1222C94.2916 37.1445 94.3052 37.1739 94.3077 37.2053C94.4346 37.3598 94.5892 37.5806 94.4953 37.7958C94.4953 37.7958 94.4953 37.7958 94.4346 37.8289C94.3739 37.8621 94.4677 37.7958 94.4677 37.7627C94.5355 37.5724 94.5872 37.3767 94.6223 37.1777C94.7437 36.8355 95.2404 36.9293 95.6433 36.9293C95.8359 36.8789 96.0348 36.8566 96.2338 36.8631C96.4491 36.9293 96.5429 37.0508 96.7306 36.9293C96.7582 36.8631 96.9458 36.9293 97.0065 37.0232C97.169 37.1804 97.2773 37.3853 97.3156 37.6082C97.4964 38.3348 97.631 39.0721 97.7185 39.8158C97.7829 39.9849 97.8915 40.1336 98.0331 40.2463V40.2352ZM95.8254 42.0621C95.7978 42.0621 95.7978 42.0952 95.7978 42.1228H95.6102V42.0621L95.6378 42.0952C95.6709 42.1559 95.7316 42.2166 95.7978 42.3104V42.4649H95.8585C95.8509 42.4007 95.8303 42.3388 95.7978 42.2828V42.0952C95.7978 42.0952 95.7702 42.0621 95.7978 42.0621H95.8254ZM95.8585 45.5335C95.8585 45.5335 95.8254 45.5335 95.7978 45.4728C95.8059 45.3994 95.7945 45.3252 95.7647 45.2576C95.7618 45.2339 95.75 45.2122 95.7316 45.1969C95.7316 45.2245 95.6709 45.2576 95.6709 45.2576C95.7233 45.3229 95.766 45.3954 95.7978 45.4728C95.7978 45.5059 95.831 45.5059 95.831 45.5335H95.8585ZM95.8585 43.2707V43.3038C95.8585 43.4253 95.9193 43.4584 95.9524 43.5522C95.98 43.5522 95.98 43.5191 96.0407 43.4584C95.9524 43.4253 95.9248 43.337 95.8585 43.2707ZM96.852 45.7819V45.5998C96.7306 45.4121 96.4491 45.4728 96.3553 45.1969L96.2946 45.2576C96.4491 45.5059 96.3553 45.9088 96.6974 46.091C96.7306 46.1572 96.7306 46.1848 96.7582 46.1848C96.7858 46.1848 96.8851 46.2179 96.8851 46.251C96.8851 46.1848 96.8851 46.1848 96.8189 46.1848C96.7749 46.1425 96.7221 46.1105 96.6643 46.091C96.7359 45.984 96.7987 45.8714 96.852 45.7543V45.7819ZM97.3156 45.3183C97.23 45.4481 97.1872 45.6015 97.1931 45.7569C97.199 45.9122 97.2534 46.0619 97.3487 46.1848C97.3813 46.2246 97.4245 46.2545 97.4733 46.2711C97.522 46.2877 97.5745 46.2903 97.6246 46.2786C97.7185 46.2179 97.9061 46.0634 97.9061 46.0634C97.7666 45.7796 97.6002 45.5098 97.4094 45.2576C97.3487 45.2576 97.3156 45.2852 97.3156 45.3183ZM98.0331 40.2352C98.0691 40.1346 98.1359 40.0478 98.2241 39.9874C98.3123 39.9269 98.4174 39.8958 98.5243 39.8986C98.4959 40.004 98.4309 40.0959 98.3408 40.1576C98.2508 40.2193 98.1416 40.2469 98.0331 40.2352ZM98.6788 39.7716L98.5243 39.9262L98.4635 39.2749C98.4967 39.2418 98.6181 39.8268 98.6788 39.8268V39.7716ZM98.6788 39.7992C98.6788 39.7385 98.6181 39.6778 98.6181 39.6447C98.7361 39.4137 98.8929 39.2046 99.0817 39.0266C99.2113 38.9831 99.3496 38.9717 99.4846 38.9935V38.9603C99.2693 39.3025 99.1148 39.7054 98.6788 39.7716V39.7992ZM99.7826 38.6513C99.6888 38.7782 99.5674 38.872 99.5011 38.9603V38.9935C99.5011 38.7782 99.5674 38.6237 99.8157 38.6513H99.7826ZM99.7826 38.6513H99.8433H99.7826ZM99.9095 44.8547C99.7826 44.7885 99.8157 44.7609 99.9095 44.7002V44.6671C99.9095 44.7609 99.9095 44.7885 99.9371 44.8216L99.9095 44.8547ZM99.9095 44.8547L99.9371 44.8216C99.9702 44.8823 100.064 44.8823 100.092 44.9154C100.119 44.9485 100.064 45.0092 99.9978 45.0423H99.9371C99.9371 45.0092 99.9095 45.0092 99.8433 44.9485C99.8599 44.8823 99.8599 44.8823 99.893 44.8547H99.9095Z" fill="white"/>
<path d="M110.215 40.5774C110.491 40.3567 110.121 41.3501 110.308 41.1293C110.496 40.9086 110.618 40.6326 110.772 40.7872C110.927 40.9417 110.833 41.2508 110.711 41.4991C110.651 41.6536 110.524 41.7475 110.584 41.8744C110.739 42.1172 109.315 44.2255 108.106 45.8095C107.608 46.429 107.012 46.9622 106.34 47.3879C105.887 47.6403 105.364 47.7391 104.85 47.6694C104.602 47.6087 104.353 47.6087 104.044 47.5149C103.829 47.4818 103.608 47.4818 103.426 47.4542C102.836 47.2996 102.554 46.7698 102.587 45.964C102.609 45.659 102.51 45.3577 102.311 45.1251C102.311 45.1251 102.311 45.0644 102.339 45.0644C102.367 45.0644 102.311 45.1251 102.311 45.1582C102.151 45.0037 102.339 44.783 102.311 44.6063C102.284 44.4297 102.124 44.3856 102.124 44.2642C102.094 43.7624 102.146 43.2591 102.278 42.774C102.62 42.0014 102.775 41.0079 103.178 40.2021C103.383 39.6344 103.676 39.102 104.044 38.6237C104.105 38.4968 104.199 38.3422 104.293 38.1877C104.508 37.8179 104.696 37.415 105.038 37.255C105.098 37.255 105.192 37.1059 105.314 37.0121C105.335 36.9361 105.372 36.8652 105.421 36.8036C105.47 36.7419 105.532 36.6908 105.601 36.6532C105.671 36.6157 105.747 36.5924 105.825 36.5849C105.904 36.5773 105.983 36.5856 106.059 36.6092C106.462 36.7914 106.837 36.6092 107.207 36.7307C107.673 36.8193 108.1 37.0481 108.433 37.3864C108.765 37.7246 108.986 38.1563 109.067 38.6237C109.177 39.0066 109.198 39.4096 109.128 39.8019C109.058 40.1942 108.9 40.5653 108.664 40.8865C108.549 41.1106 108.378 41.3008 108.167 41.4384C107.693 41.894 107.174 42.2991 106.616 42.6471C105.844 43.05 105.75 43.2983 105.562 44.3028C105.533 44.383 105.512 44.4663 105.501 44.5512C105.501 44.8326 105.408 45.1748 105.534 45.2631C105.628 45.5115 105.844 45.1748 105.998 45.1086C106.504 44.7957 106.973 44.4253 107.394 44.0048C107.643 43.4805 108.046 43.2321 108.322 42.7023V42.7354C108.415 42.6747 108.449 42.6084 108.542 42.5477C109.1 41.8799 109.751 41.4439 110.215 40.5774ZM105.408 39.2418H105.347L105.38 39.3356L105.408 39.2418ZM107.615 38.7782C107.561 38.6977 107.498 38.6236 107.428 38.5575C107.428 38.4968 107.334 38.6237 107.306 38.6844C107.025 39.3356 106.754 39.9869 106.5 40.6381C106.497 40.6911 106.506 40.7443 106.528 40.7927H106.594C106.688 40.6381 106.809 40.5112 106.87 40.3898C107.367 40.1414 107.422 39.5509 107.582 39.0266C107.587 38.9434 107.596 38.8604 107.61 38.7782H107.615ZM108.305 42.7133C108.244 42.7133 108.211 42.5588 108.338 42.465L108.526 42.5588C108.432 42.6195 108.399 42.6857 108.305 42.7464V42.7133ZM109.409 41.753C109.254 41.753 109.315 41.8799 109.436 41.753H109.409Z" fill="white"/>
</svg>
