<svg width="140" height="70" viewBox="0 0 140 70" fill="none" xmlns="http://www.w3.org/2000/svg">
<mask id="mask0" mask-type="alpha" maskUnits="userSpaceOnUse" x="38" y="3" width="65" height="65">
<rect x="38" y="3" width="65" height="65" rx="6.92222" fill="white"/>
</mask>
<g mask="url(#mask0)">
<path d="M52.2144 29.7182H54.3141V41.9498H52.2144V29.7182ZM52.2144 25.0941H54.3141V27.4348H52.2144V25.0941Z" fill="white"/>
<path d="M59.053 25.0941L63.8952 39.4484L68.6799 25.0941H71.2387L65.0885 41.9498H62.6674L56.5287 25.0941H59.053Z" fill="white"/>
<path d="M76.9529 29.3854C77.8249 29.3854 78.6702 29.592 79.4887 30.005C80.3072 30.4105 80.9306 30.9383 81.359 31.5885C81.7721 32.2081 82.0475 32.931 82.1852 33.7571C82.3075 34.3232 82.3687 35.2258 82.3687 36.4651H73.3614C73.3997 37.7119 73.6942 38.714 74.245 39.4713C74.7957 40.221 75.6486 40.5958 76.8037 40.5958C77.8823 40.5958 78.7429 40.2401 79.3854 39.5287C79.7526 39.1156 80.0127 38.6375 80.1657 38.0944H82.1966C82.1431 38.5457 81.9633 39.0506 81.6573 39.609C81.359 40.1598 81.0224 40.6111 80.6476 40.963C80.0203 41.5749 79.2439 41.988 78.3183 42.2022C77.8211 42.3246 77.2589 42.3858 76.6316 42.3858C75.1017 42.3858 73.8051 41.8312 72.7418 40.722C71.6785 39.6052 71.1469 38.0447 71.1469 36.0405C71.1469 34.0669 71.6824 32.4644 72.7533 31.2328C73.8242 30.0012 75.2241 29.3854 76.9529 29.3854ZM80.246 34.8242C80.1619 33.9292 79.9668 33.214 79.6608 32.6785C79.0947 31.6841 78.15 31.1869 76.8267 31.1869C75.8781 31.1869 75.0826 31.5311 74.44 32.2196C73.7975 32.9004 73.4571 33.7686 73.4188 34.8242H80.246Z" fill="white"/>
<path d="M85.3291 26.23H87.4174V29.6608H89.3795V31.3475H87.4174V39.368C87.4174 39.7964 87.5628 40.0833 87.8534 40.2286C88.0141 40.3128 88.2818 40.3548 88.6566 40.3548C88.7561 40.3548 88.8632 40.3548 88.9779 40.3548C89.0927 40.3472 89.2265 40.3357 89.3795 40.3204V41.9498C89.1424 42.0186 88.8938 42.0683 88.6337 42.0989C88.3813 42.1295 88.1059 42.1448 87.8075 42.1448C86.8437 42.1448 86.1897 41.9 85.8454 41.4105C85.5012 40.9132 85.3291 40.2707 85.3291 39.4828V31.3475H83.6653V29.6608H85.3291V26.23Z" fill="white"/>
</g>
<mask id="mask1" mask-type="alpha" maskUnits="userSpaceOnUse" x="38" y="3" width="65" height="65">
<rect x="38" y="3" width="65" height="65" rx="6.92222" fill="white"/>
</mask>
<g mask="url(#mask1)">
<path d="M98.6681 48.0612L57.2324 82.1916C49.7904 88.3216 39.0357 88.2745 31.6477 82.0796C24.2612 75.8798 22.3462 65.2942 27.0922 56.8994L53.5111 10.1716C55.4619 6.7075 58.857 4.2949 62.77 3.59215C66.6805 2.87677 70.7062 3.94477 73.7478 6.50451L75.4504 7.9327L73.8074 9.89354L72.1029 8.46354C69.6432 6.39469 66.3888 5.53079 63.2268 6.10729C60.0625 6.67579 57.3166 8.626 55.7374 11.4265L29.3167 58.1614C25.1803 65.4828 26.8515 74.7127 33.2925 80.1188C39.7355 85.5216 49.1147 85.5634 55.6056 80.2181L97.0395 46.0841C99.5229 44.0429 100.967 41.0004 100.977 37.7858C100.996 34.571 99.5796 31.5155 97.1135 29.4531L95.4127 28.0249L97.0557 26.0641L98.7602 27.4941C101.809 30.0459 103.561 33.8245 103.538 37.8002C103.524 41.7751 101.739 45.5369 98.6681 48.0612Z" fill="#D5D5D5"/>
<path d="M96.4674 104.053C100.916 95.4945 105.181 87.2846 111.603 82.6299L111.363 82.3157L109.632 80.0335L109.397 79.7266C102.283 84.9356 97.6988 93.7575 93.2246 102.366C86.0385 116.193 78.6087 130.493 60.8456 131.801C47.9052 132.752 36.3533 126.285 30.6983 114.919C26.3017 106.08 26.3234 96.2203 30.4455 87.6475C31.3392 85.7878 33.5781 85.0349 35.4505 85.907C38.109 87.1468 40.9998 87.8101 43.933 87.8534C48.6981 87.9159 53.3404 86.3417 57.0846 83.3936C57.2704 83.2557 57.3828 83.0405 57.3898 82.8092C57.3969 82.578 57.2977 82.3563 57.1208 82.2074L55.1112 80.5228C54.843 80.2973 54.4549 80.2861 54.1741 80.4957C47.9769 85.1266 39.4048 84.8721 33.4933 79.8818C27.5521 74.9253 25.8122 66.527 29.2953 59.6181C29.4513 59.3049 29.3722 58.9255 29.104 58.7009L27.1178 57.0325C26.945 56.8788 26.7115 56.8124 26.4836 56.8521C26.2557 56.8918 26.0584 57.0334 25.9478 57.2366C23.6864 61.44 22.938 66.2928 23.8281 70.9822C24.3773 73.8503 25.524 76.5707 27.1937 78.9664C28.481 80.8153 28.5876 83.2257 27.5566 85.2281C22.5371 94.9889 22.362 106.371 27.4266 116.547C29.5238 120.798 32.4768 124.569 36.1005 127.624C42.828 133.27 51.6409 136.143 61.1128 135.444C80.9126 133.987 89.1748 118.082 96.4674 104.053Z" fill="white"/>
<path fill-rule="evenodd" clip-rule="evenodd" d="M79.8176 10.0526C79.8907 10.1013 79.9585 10.1576 80.0199 10.2205L80.0181 10.2223C80.8803 11.0186 81.1061 12.292 80.5703 13.3363C80.0345 14.3806 78.8685 14.9398 77.7187 14.7039C76.5689 14.468 75.7173 13.4948 75.636 12.3239L73.4061 10.0255C73.101 9.7113 73.1118 9.18047 73.4296 8.8013L74.2638 7.80644C74.5815 7.42728 75.1033 7.32617 75.4645 7.57172L78.3461 9.52353C78.8793 9.54458 79.3931 9.72929 79.8176 10.0526ZM95.0835 23.5706L97.4036 25.9629C97.7088 26.2771 97.6979 26.8079 97.3802 27.1871L96.5442 28.1819C96.2282 28.5611 95.7046 28.6622 95.3435 28.4167L92.5864 26.5479C91.1789 26.5974 89.9851 25.523 89.8866 24.1181C89.788 22.7131 90.82 21.4826 92.2207 21.335C93.6213 21.1875 94.8871 22.1759 95.0835 23.5706Z" fill="#8B8B8B"/>
</g>
</svg>
