<svg width="140" height="70" viewBox="0 0 140 70" fill="none" xmlns="http://www.w3.org/2000/svg">
<path d="M41.0134 60C26.879 59.9792 16.0069 48.4117 16 35.011C15.9931 21.6103 26.8513 9.98384 41.0296 10C55.037 10.0162 66.1043 21.4485 65.9992 35.1971C65.8963 48.681 54.9712 59.9572 41.0134 60ZM64.4939 34.9902C64.4696 21.9074 53.8413 11.5269 41.0331 11.513C28.1451 11.4945 17.5018 21.9501 17.5088 35.0064C17.5088 48.0268 28.1105 58.4847 41.0065 58.4824C53.8529 58.4812 64.4789 48.073 64.4939 34.9902Z" fill="#D5D5D5"/>
<path d="M56.4363 41.0383L50.8472 41.0371L29.8864 32.9937L29.8829 40.9816H25.5669V28.961H30.6407L52.1365 37.6863V28.9864H56.4363V41.0383Z" fill="#D5D5D5"/>
<path d="M84.2902 29.1052V40.7051H83.071L81.89 39.3378L76.6755 33.2246V39.896C76.6802 39.9132 76.6885 39.9291 76.6998 39.9428C76.7112 39.9566 76.7252 39.9678 76.7411 39.9757C76.7571 39.9837 76.7745 39.9882 76.7922 39.989C76.81 39.9898 76.8278 39.9869 76.8443 39.9804C76.9887 39.9646 77.1347 39.974 77.2758 40.0082L77.3915 40.0278V40.5895H73.6367V40.0278L73.7316 40.0082C73.8439 39.9739 73.9623 39.9644 74.0786 39.9804C74.1468 39.9989 74.1943 39.9712 74.2186 39.896V29.0856C74.225 29.0218 74.2155 28.9575 74.1908 28.8983C74.1698 28.8725 74.1395 28.8559 74.1064 28.8521C74.0596 28.8451 74.012 28.8451 73.9652 28.8521C73.8923 28.8561 73.8193 28.8463 73.7501 28.8232L73.6749 28.8047V28.243H76.6755L81.8368 34.3527V28.955C81.832 28.9378 81.8237 28.9219 81.8124 28.9082C81.8011 28.8945 81.787 28.8833 81.7711 28.8753C81.7552 28.8674 81.7378 28.8628 81.72 28.862C81.7022 28.8612 81.6845 28.8641 81.6679 28.8706C81.5236 28.8864 81.3776 28.877 81.2364 28.8429L81.1208 28.8232V28.2615H84.835V28.8232L84.7598 28.8429C84.69 28.865 84.6167 28.8744 84.5435 28.8706C84.4971 28.8648 84.45 28.8648 84.4036 28.8706C84.3871 28.8723 84.3712 28.8773 84.3567 28.8853C84.3422 28.8932 84.3294 28.9039 84.3191 28.9168C84.2931 28.976 84.2832 29.041 84.2902 29.1052Z" fill="#D5D5D5"/>
<path d="M87.2891 34.5951C87.2891 33.3838 87.4013 32.3624 87.6257 31.531C87.8501 30.6996 88.216 30.025 88.7234 29.5071C89.2742 28.964 89.961 28.5788 90.7118 28.3918C91.5308 28.1675 92.5402 28.0554 93.7402 28.0554C94.9401 28.0554 95.9499 28.1675 96.7696 28.3918C97.5886 28.6168 98.2514 28.9824 98.758 29.4886C99.2905 30.0406 99.6687 30.7225 99.8546 31.4663C100.081 32.2777 100.193 33.2771 100.192 34.4645C100.192 35.6388 100.08 36.629 99.8546 37.435C99.6686 38.173 99.2902 38.8485 98.758 39.3929C98.2514 39.8938 97.5886 40.2533 96.7696 40.4713C95.9507 40.6894 94.9408 40.7984 93.7402 40.7984C92.541 40.7984 91.5316 40.6894 90.7118 40.4713C89.8921 40.2533 89.2293 39.9004 88.7234 39.4126C88.1934 38.8846 87.8143 38.2245 87.6257 37.5009C87.4013 36.7141 87.2891 35.7455 87.2891 34.5951ZM94.4539 39.0369C94.8304 39.0473 95.2055 38.987 95.5597 38.8589C95.8547 38.7449 96.1095 38.5462 96.2919 38.288C96.4986 37.9771 96.6358 37.6255 96.6944 37.257C96.7836 36.7371 96.8247 36.2101 96.8171 35.6827C96.8283 34.7576 96.7653 33.8331 96.6285 32.918C96.5036 32.1621 96.2942 31.553 96.0004 31.0906C95.7295 30.6485 95.3305 30.2991 94.8564 30.0885C94.3056 29.867 93.7148 29.7615 93.1213 29.7788C92.7316 29.769 92.3435 29.8326 91.9773 29.966C91.6689 30.0883 91.4044 30.3005 91.2185 30.5751C91.0018 30.9136 90.8581 31.2935 90.7963 31.6905C90.7006 32.2474 90.6565 32.8119 90.6644 33.3769C90.6517 34.267 90.7175 35.1566 90.861 36.0353C90.9929 36.7542 91.2088 37.3352 91.5088 37.7782C91.794 38.2099 92.2022 38.5461 92.6806 38.7434C93.2468 38.9561 93.8492 39.0559 94.4539 39.0369Z" fill="#D5D5D5"/>
<path d="M103.178 29.2173V28.243H111.655V29.667L111.374 30.1732L106.666 38.6813H110.886C110.934 38.6709 110.975 38.6431 111.003 38.6032C111.031 38.5634 111.043 38.5145 111.036 38.4663C111.057 38.2571 111.107 38.0519 111.187 37.8572L111.224 37.7254H111.936V40.615H102.953V39.7342L103.531 38.6847L108.239 30.1767H104.209C104.163 30.1854 104.123 30.2119 104.096 30.2505C104.07 30.289 104.06 30.3365 104.068 30.3824C104.057 30.5708 104.009 30.7552 103.928 30.9257L103.872 31.0759H103.178V29.2266V29.2173Z" fill="#D5D5D5"/>
<path d="M123.678 39.6366L123.697 40.6109H114.844V40.0492L114.938 40.0307C115.044 39.9843 115.161 39.971 115.275 39.9926C115.337 40.018 115.381 39.9799 115.406 39.877V28.9544C115.381 28.8539 115.337 28.8169 115.275 28.8388C115.161 28.8591 115.044 28.8459 114.938 28.8007L114.844 28.7822V28.239H119.176V28.8007L119.101 28.8192C118.982 28.8662 118.852 28.8794 118.726 28.8573C118.651 28.8319 118.601 28.87 118.576 28.9729V38.6819H122.646C122.746 38.6449 122.793 38.5536 122.786 38.4102C122.799 38.1643 122.846 37.9214 122.927 37.689L122.964 37.5018C122.964 37.5145 122.999 37.5203 123.069 37.5203C123.138 37.5203 123.258 37.5203 123.434 37.5018C123.596 37.5145 123.678 37.5145 123.678 37.5018V39.6377V39.6366Z" fill="#D5D5D5"/>
</svg>
