<svg width="140" height="70" viewBox="0 0 140 70" fill="none" xmlns="http://www.w3.org/2000/svg">
<rect x="55.2969" y="10" width="28.2248" height="28.2248" rx="14.1124" fill="#D5D5D5"/>
<path fill-rule="evenodd" clip-rule="evenodd" d="M69.4566 36.8383C62.3683 36.8576 56.5405 31.1459 56.5264 24.1667C56.5123 17.1874 62.3029 11.4353 69.3854 11.4155C76.4788 11.3956 82.2892 17.0976 82.3053 24.0948C82.3213 31.092 76.5551 36.8197 69.4566 36.8383ZM60.5336 21.5719L57.7284 24.7202C57.8747 26.7242 58.4026 28.4991 59.4732 30.1727L63.6037 31.1022L65.9284 28.0585C65.7661 27.4439 65.6256 26.9128 65.4832 26.3746C66.8585 26.1937 72.7254 26.2373 73.5016 26.4317C73.3915 26.7972 73.2813 27.1622 73.172 27.5245L72.8986 28.4311L74.9571 31.2709L79.3108 30.3042C80.3288 28.6755 80.9613 26.9756 81.0613 25.0352L78.1644 21.7746L74.6671 22.8202L73.6927 25.3457H65.1156L64.2637 22.8144L60.5336 21.5719ZM66.3855 28.6348H72.1588L74.316 31.6607L72.0882 35.3517C70.2049 35.8219 68.231 35.7879 66.365 35.2529L64.1525 31.5901L66.3855 28.6348ZM69.7889 18.8424L71.3881 21.5815C71.9247 21.2766 72.4196 20.9272 72.9207 20.5735C73.6727 20.0426 74.4385 19.5021 75.3794 19.0875C75.2042 20.1671 75.0618 21.0472 74.9021 22.0344L77.9812 21.0613C78.0656 20.1929 78.1478 19.3462 78.2299 18.5006L78.3994 16.7544C77.1659 15.2418 75.6186 14.1776 73.811 13.4323L69.7889 15.1386V18.8424ZM60.7657 20.3485C60.655 19.1618 60.5442 17.9751 60.4335 16.7493C61.7427 15.2052 63.2701 14.1564 65.113 13.4078L69.0587 15.109C69.0587 15.3758 69.0589 15.6429 69.0591 15.9102C69.0598 16.8025 69.0605 17.6973 69.0536 18.5922C69.0486 18.7337 69.0084 18.8717 68.9368 18.9938C68.5696 19.6234 68.1961 20.2509 67.8122 20.8957C67.679 21.1194 67.5446 21.3452 67.4089 21.5738C66.8791 21.2686 66.3909 20.9182 65.8978 20.5643C65.1472 20.0256 64.3855 19.479 63.4497 19.072C63.5538 19.6255 63.6481 20.1252 63.742 20.6233C63.824 21.0581 63.9058 21.4917 63.9937 21.9587L60.8184 20.9131C60.8008 20.7248 60.7833 20.5366 60.7657 20.3485Z" fill="#505050"/>
<path fill-rule="evenodd" clip-rule="evenodd" d="M35.5682 60C36.7352 60 37.6216 59.6465 38.2275 58.9396C38.8335 58.2327 39.1364 57.2284 39.1364 55.9268V49.0429C39.1364 47.7974 38.8335 46.8576 38.2275 46.2237C37.6216 45.5897 36.7352 45.2727 35.5682 45.2727C34.4012 45.2727 33.5148 45.5897 32.9089 46.2237C32.303 46.8576 32 47.7974 32 49.0429V55.9268C32 57.2172 32.303 58.2187 32.9089 58.9312C33.5148 59.6437 34.4012 60 35.5682 60ZM35.5715 57.3402C35.3022 57.3402 35.117 57.2336 35.0161 57.0204C34.9151 56.8073 34.8646 56.4931 34.8646 56.0779V49.0256C34.8646 48.2963 35.1058 47.9316 35.5883 47.9316C35.8464 47.9316 36.0175 48.0298 36.1017 48.2262C36.1858 48.4225 36.2279 48.6778 36.2279 48.992V56.0611C36.2279 56.465 36.183 56.7792 36.0933 57.0036C36.0035 57.228 35.8296 57.3402 35.5715 57.3402ZM43.1251 52.6284V59.8658H40.2975V45.4078H43.2766L44.6063 52.3254V45.4078H47.4003V59.8658H44.5726L43.1251 52.6284ZM56.7582 59.8658V48.185H58.4749V45.4078H52.1464V48.185H53.8632V59.8658H56.7582ZM62.16 53.3016V59.8658H59.2818V45.4078H62.16V50.575H63.5233V45.4078H66.4014V59.8658H63.5233V53.3016H62.16ZM73.6586 59.8658V57.055H70.6289V53.7392H73.3556V51.0126H70.6289V48.2018H73.4734V45.4078H67.6835V59.8658H73.6586ZM84.9685 58.6792C84.5085 59.4703 83.6781 59.8658 82.4775 59.8658H78.5559V45.4078H82.4775C83.5323 45.4078 84.2981 45.6659 84.775 46.1821C85.2519 46.6982 85.4903 47.5398 85.4903 48.7067V49.3463C85.4903 50.7265 84.9966 51.5512 84.0092 51.8205C84.6151 51.9776 85.0415 52.3423 85.2883 52.9145C85.5352 53.4868 85.6586 54.2442 85.6586 55.1867C85.6586 56.724 85.4286 57.8881 84.9685 58.6792ZM81.9737 50.8442H81.3846V47.6295H81.9906C82.4057 47.6295 82.6133 47.8651 82.6133 48.3364V49.7839C82.6133 50.1205 82.5684 50.3814 82.4787 50.5665C82.3889 50.7517 82.2206 50.8442 81.9737 50.8442ZM81.3846 57.3069L81.6708 57.3237C82.4226 57.3237 82.7984 56.9647 82.7984 56.2465V54.4456C82.7984 54.008 82.7339 53.677 82.6049 53.4526C82.4758 53.2281 82.2486 53.1159 81.9232 53.1159H81.3846V57.3069ZM89.0424 59.8658L89.2107 57.5263H90.9612L91.1632 59.8658H93.9066L92.5265 45.4078H87.6286L86.2316 59.8658H89.0424ZM89.4266 55.2203H90.7394L90.0998 47.8651H89.9652L89.4266 55.2203ZM100.654 59.8658V57.4084H97.6747V45.4078H94.7798V59.8658H100.654ZM107.337 57.4084V59.8658H101.463V45.4078H104.358V57.4084H107.337Z" fill="#D5D5D5"/>
</svg>
