<svg width="140" height="70" viewBox="0 0 140 70" fill="none" xmlns="http://www.w3.org/2000/svg">
<path fill-rule="evenodd" clip-rule="evenodd" d="M58.0142 20.5518L70.1408 8.44298C70.7324 7.85244 71.6913 7.85233 72.283 8.44273L83.9306 20.0733C84.2148 20.357 84.3745 20.7419 84.3745 21.1432C84.3745 21.5445 84.2148 21.9293 83.9306 22.2131L69.645 36.4777C69.0533 37.0685 68.0939 37.0685 67.5021 36.4777L60.022 29.0086C59.961 28.9469 59.9055 28.8802 59.8559 28.8092L57.9409 26.8971C57.6833 26.6399 57.5386 26.291 57.5386 25.9272C57.5386 25.5634 57.6833 25.2145 57.9409 24.9573L59.1173 23.7827L58.029 22.7061C57.7384 22.4238 57.5732 22.0369 57.5704 21.6321C57.5676 21.2272 57.7275 20.8381 58.0142 20.5518ZM69.3014 35.1096L82.1972 22.2327H82.1977C82.5257 21.9052 82.5257 21.3743 82.1977 21.0468C81.8697 20.7193 81.338 20.7193 81.01 21.0468L69.3017 32.7379C69.1443 32.8953 68.9307 32.9838 68.7079 32.9838C68.4852 32.9838 68.2716 32.8953 68.1142 32.7379L63.1657 27.7967C62.8377 27.4692 62.306 27.4692 61.978 27.7967C61.65 28.1242 61.65 28.6551 61.978 28.9826L68.114 35.1096C68.2713 35.267 68.485 35.3554 68.7077 35.3554C68.9304 35.3554 69.144 35.267 69.3014 35.1096Z" fill="#D5D5D5"/>
<path fill-rule="evenodd" clip-rule="evenodd" d="M73.9087 48.5966L76.4653 45.2779H79.241L76.0818 49.0889L79.7705 54.3951H77.0314L74.5306 50.968L73.9097 51.7339V54.3951H71.5723V41.8134H73.9087V48.5966ZM37.2218 45.8434C37.2218 48.5056 35.4323 49.9644 32.5105 49.9644H30.5566V54.3953H28V41.8136H32.5105C35.414 41.8136 37.2218 43.1447 37.2218 45.8434ZM30.5566 43.9833V47.8125H32.1453C33.9167 47.8125 34.6654 47.1926 34.6654 45.8432C34.6654 44.6398 33.9167 43.9833 32.1453 43.9833H30.5566ZM37.4595 51.6965C37.4595 53.5574 38.7743 54.5593 40.6735 54.5593C41.7326 54.5593 42.2805 54.2129 42.6457 53.5929V54.3952H44.9283V48.4143C44.9283 45.8068 43.5958 45.1139 41.2396 45.1139C39.3587 45.1139 38.3361 45.5151 37.6614 46.6274L39.3049 47.7761C39.6884 47.1744 40.1266 47.0468 41.0214 47.0468C42.3362 47.0468 42.6467 47.375 42.6467 48.3961V48.9249H40.8378C38.9204 48.9249 37.4595 49.7627 37.4595 51.6965ZM41.0759 52.6811C42.135 52.6811 42.6463 52.2253 42.6463 50.9853V50.6389H41.1129C40.1628 50.6389 39.7433 50.9489 39.7433 51.66C39.7433 52.3529 40.2724 52.6811 41.0759 52.6811ZM51.7754 45.7519C51.2244 45.3074 50.5291 45.0803 49.8215 45.1137C47.6484 45.1137 46.2058 46.5359 46.2058 49.1982V50.4381C46.2058 52.8632 47.4293 54.559 49.8215 54.559C50.5291 54.5924 51.2244 54.3653 51.7754 53.9208V54.2126C51.7754 55.6171 51.2459 56.0178 49.858 56.0178C48.9997 56.0178 48.4702 55.7443 48.0684 55.1972L46.498 56.3278C47.3015 57.5677 48.3789 57.9688 50.0762 57.9688C52.3771 57.9688 54.0936 57.2577 54.0936 54.2126V45.2778H51.7739L51.7754 45.7519ZM48.524 50.2922C48.524 51.6041 48.8892 52.5897 50.1492 52.5897C51.3909 52.5897 51.7744 51.6962 51.7744 50.4923V49.3435C51.7744 47.8847 51.2996 47.0824 50.1492 47.0824C48.9987 47.0824 48.524 47.8847 48.524 49.3435V50.2922ZM55.2636 51.6965C55.2636 53.5564 56.5784 54.5593 58.4775 54.5593C59.5367 54.5593 60.0845 54.2129 60.4497 53.5929V54.3952H62.7324V48.4143C62.7324 45.8068 61.3998 45.1139 59.0436 45.1139C57.1627 45.1139 56.1401 45.5151 55.4654 46.6274L57.1089 47.7761C57.4924 47.1744 57.9307 47.0468 58.8255 47.0468C60.1403 47.0468 60.4507 47.375 60.4507 48.3961V48.9249H58.6409C56.7245 48.9249 55.2636 49.7627 55.2636 51.6965ZM58.8778 52.6811C59.9369 52.6811 60.4482 52.2253 60.4482 50.9853L60.4487 50.6389H58.9148C57.9647 50.6389 57.5452 50.9489 57.5452 51.66C57.5452 52.3529 58.0743 52.6811 58.8778 52.6811ZM71.0769 46.536C70.5979 45.6276 69.6391 45.0744 68.6116 45.1138C67.5342 45.1138 66.9316 45.5879 66.6212 46.0437V45.2779H64.3385V54.395H66.676V49.0341C66.676 47.7577 67.2603 47.1195 68.1368 47.1195C68.6165 47.1296 69.0546 47.3935 69.2873 47.8124L71.0769 46.536ZM80.484 54.3951H82.8214V49.0342C82.8214 47.8307 83.351 47.1196 84.4284 47.1196C85.378 47.1196 85.8893 47.6302 85.8893 49.0524V54.3951H88.2089V48.6877C88.2089 45.9891 86.7115 45.1148 84.8672 45.1148C83.808 45.1148 83.1689 45.5337 82.8219 45.9901V41.8134H80.4845L80.484 54.3951ZM92.5903 54.5593C90.6911 54.5593 89.3764 53.5574 89.3764 51.6965C89.3764 49.7627 90.8372 48.9249 92.7556 48.9249H94.5635V48.3961C94.5635 47.375 94.253 47.0468 92.9382 47.0468C92.0435 47.0468 91.6052 47.1744 91.2217 47.7761L89.5782 46.6274C90.2529 45.5151 91.2755 45.1139 93.1564 45.1139C95.5126 45.1139 96.8451 45.8068 96.8451 48.4143V54.3952H94.5625V53.5929C94.1973 54.2129 93.6494 54.5593 92.5903 54.5593ZM94.561 50.9853C94.561 52.2253 94.0497 52.6811 92.9905 52.6811C92.1871 52.6811 91.658 52.3529 91.658 51.66C91.658 50.9489 92.0775 50.6389 93.0276 50.6389H94.5615L94.561 50.9853ZM98.9438 47.2478H97.7751L97.7746 45.2785H98.9433V43.2727H101.263V45.2785H103.053V47.2478H101.264V51.0588C101.264 51.9705 101.447 52.3534 102.305 52.3534H103.053V54.3957H102.066C99.8568 54.3957 98.9438 53.7757 98.9438 51.4235V47.2478ZM103.786 51.6965C103.786 53.5574 105.101 54.5593 107 54.5593C108.059 54.5593 108.607 54.2129 108.972 53.5929V54.3952H111.255V48.4143C111.255 45.8068 109.922 45.1139 107.566 45.1139C105.685 45.1139 104.662 45.5151 103.988 46.6274L105.631 47.7761C106.015 47.1744 106.453 47.0468 107.348 47.0468C108.663 47.0468 108.973 47.375 108.973 48.3961V48.9249H107.165C105.247 48.9249 103.786 49.7627 103.786 51.6965ZM107.4 52.6811C108.459 52.6811 108.971 52.2253 108.971 50.9853L108.971 50.6389H107.437C106.487 50.6389 106.068 50.9489 106.068 51.66C106.068 52.3529 106.597 52.6811 107.4 52.6811Z" fill="#D5D5D5"/>
<path d="M86.3829 57.7924C86.2253 57.7904 86.0693 57.8241 85.9266 57.891C85.759 57.9384 85.6128 58.0422 85.5128 58.1847V56.5754H84.6108V61.6953H85.5128V59.2805C85.5048 59.0965 85.5696 58.9169 85.6932 58.7802C85.8051 58.6594 85.9634 58.5922 86.1282 58.5954C86.2848 58.5878 86.4352 58.6568 86.5315 58.7802C86.655 58.9169 86.7198 59.0965 86.7118 59.2805V61.6953H87.6148V59.1624C87.6306 58.7971 87.5138 58.4384 87.2858 58.1522C87.054 57.9033 86.7226 57.7713 86.3829 57.7924Z" fill="#D5D5D5"/>
<path fill-rule="evenodd" clip-rule="evenodd" d="M88.6523 58.0967C88.9436 57.8749 89.3057 57.7667 89.671 57.7921C90.0554 57.769 90.4353 57.8848 90.7412 58.1183C91.0271 58.388 91.1786 58.7702 91.1551 59.1621V61.6965H90.2746V61.3702C90.1553 61.4811 90.0192 61.5726 89.8714 61.6413C89.7132 61.705 89.5433 61.7346 89.3729 61.7282C89.0488 61.7497 88.729 61.6443 88.4813 61.4345C88.2574 61.1884 88.1392 60.8642 88.1524 60.5319C88.1386 60.2179 88.2672 59.9143 88.5025 59.7055C88.7799 59.4964 89.1208 59.3889 89.4682 59.4011H90.2534V59.1077C90.2794 58.9367 90.2236 58.7634 90.1027 58.6395C89.9818 58.5157 89.8098 58.4555 89.6379 58.4771C89.4994 58.4777 89.3665 58.5323 89.2678 58.6294C89.1592 58.7034 89.0923 58.8245 89.0874 58.9556V58.9882H88.2703V58.9556C88.251 58.6245 88.3933 58.3044 88.6523 58.0967ZM90.1055 60.8367C90.2049 60.6848 90.2565 60.5067 90.2536 60.3254L90.2541 60.0316H89.6068C89.2351 60.0316 89.0338 60.2056 89.0338 60.5102C89.0338 60.8367 89.2036 60.9887 89.5856 60.9887C89.7724 61.0117 89.9606 60.9567 90.1055 60.8367Z" fill="#D5D5D5"/>
<path d="M92.9077 56.7489L92.006 57.086V57.8252H91.4858V58.4775H92.006V60.565C91.9939 60.8759 92.1088 61.1783 92.3244 61.4028C92.5518 61.5967 92.8422 61.701 93.1412 61.6963H93.555V60.9241H93.2897C93.0247 60.9241 92.908 60.772 92.908 60.5108V58.4777H93.6402V57.8255H92.908L92.9077 56.7489Z" fill="#D5D5D5"/>
<path fill-rule="evenodd" clip-rule="evenodd" d="M94.4159 58.0971C94.7115 57.8844 95.0702 57.7771 95.4343 57.7925C95.8287 57.7716 96.2183 57.8868 96.5376 58.1188C96.8135 58.393 96.9533 58.7753 96.9194 59.1626V61.6969H96.0389V61.3706C95.9348 61.4852 95.8085 61.5774 95.6675 61.6417C95.509 61.7044 95.3392 61.734 95.1688 61.7287C94.8404 61.7591 94.5141 61.6528 94.2668 61.4349C94.0507 61.1849 93.9371 60.8625 93.9488 60.5323C93.935 60.2183 94.0635 59.9148 94.2987 59.7059C94.5611 59.4919 94.8941 59.3834 95.2325 59.4016H96.0389V59.1081C96.0389 58.6951 95.8373 58.4775 95.4341 58.4775C95.2856 58.4779 95.1424 58.532 95.0308 58.6298C94.938 58.7131 94.8843 58.8314 94.8828 58.9561V58.9886H94.0339V58.9561C94.0291 58.6277 94.1687 58.3137 94.4159 58.0971ZM95.8715 60.8368C95.9918 60.6945 96.0526 60.5114 96.0412 60.3255L96.0415 60.0318H95.3727C95.0014 60.0318 94.821 60.2058 94.821 60.5103C94.821 60.8368 95.0011 60.9889 95.3727 60.9889C95.6062 60.9889 95.7866 60.9563 95.8715 60.8368Z" fill="#D5D5D5"/>
<path fill-rule="evenodd" clip-rule="evenodd" d="M98.4356 58.2162C98.6339 57.9469 98.9496 57.7892 99.2843 57.7923C99.6385 57.7758 99.9814 57.9192 100.218 58.1829C100.469 58.5293 100.589 58.9528 100.557 59.379V60.1512C100.589 60.574 100.469 60.9941 100.218 61.3364C99.9904 61.594 99.66 61.7373 99.3161 61.7277C98.9706 61.7459 98.6366 61.601 98.4142 61.3364V61.6952H97.5337V56.5743H98.4356V58.2162ZM99.0812 60.9233C99.4526 60.9233 99.6542 60.6515 99.6542 60.1188V59.4013C99.6695 59.1814 99.6097 58.9628 99.4845 58.7813C99.3792 58.6513 99.2162 58.5821 99.0494 58.5965C98.8781 58.5844 98.713 58.6629 98.6143 58.8032C98.487 58.9759 98.4233 59.1871 98.434 59.4013V60.1188C98.4217 60.3331 98.4856 60.5449 98.6143 60.7168C98.7232 60.8624 98.9002 60.9406 99.0812 60.9233Z" fill="#D5D5D5"/>
<path fill-rule="evenodd" clip-rule="evenodd" d="M101.45 58.1835C101.762 57.9085 102.17 57.7677 102.586 57.792C102.992 57.7638 103.392 57.9056 103.689 58.1835C103.979 58.5206 104.124 58.9582 104.092 59.4013V60.1191C104.126 60.5624 103.981 61.0007 103.689 61.3368C103.392 61.6147 102.992 61.7565 102.586 61.7284C102.17 61.7525 101.762 61.6118 101.45 61.3368C101.151 61.005 101.001 60.5646 101.036 60.1191V59.4013C101.003 58.956 101.152 58.5164 101.45 58.1835ZM102.587 60.9231C102.991 60.9231 103.192 60.6513 103.192 60.1186V59.401C103.192 58.8675 102.991 58.5965 102.587 58.5965C102.153 58.5965 101.94 58.8683 101.94 59.401V60.1186C101.94 60.652 102.153 60.9231 102.587 60.9231Z" fill="#D5D5D5"/>
<path fill-rule="evenodd" clip-rule="evenodd" d="M104.972 58.1834C105.269 57.9039 105.669 57.7618 106.076 57.7919C106.482 57.7636 106.882 57.9055 107.179 58.1834C107.466 58.4552 107.583 58.8357 107.583 59.4012V60.119C107.583 60.6842 107.466 61.0755 107.179 61.3367C106.882 61.6146 106.482 61.7564 106.076 61.7283C105.669 61.7583 105.269 61.6162 104.972 61.3367C104.675 61.0758 104.559 60.6842 104.559 60.119V59.4012C104.559 58.8357 104.676 58.4545 104.972 58.1834ZM106.074 60.923C106.478 60.923 106.711 60.6512 106.711 60.1185V59.4009C106.711 58.8675 106.478 58.5964 106.074 58.5964C105.639 58.5964 105.427 58.8682 105.427 59.4009V60.1185C105.427 60.652 105.639 60.923 106.074 60.923Z" fill="#D5D5D5"/>
<path d="M84.0595 56.5748H82.9878L81.5659 58.9561V56.5748H80.6323V61.6955H81.5659V60.271L82.054 59.499L83.1575 61.6955H84.2396L82.6058 58.7161L84.0595 56.5748Z" fill="#D5D5D5"/>
<path d="M109.96 59.4667L111.149 57.8574H110.13L109.027 59.4667V56.5743H108.125V61.695H109.027V60.5642L109.345 60.151L110.194 61.695H111.297L109.96 59.4667Z" fill="#D5D5D5"/>
<path fill-rule="evenodd" clip-rule="evenodd" d="M71.4883 61.6129V56.5803H73.0318C74.2079 56.5803 74.7703 57.0263 74.7703 57.8641C74.7803 58.384 74.4374 58.8451 73.936 58.986C74.5304 59.0519 74.968 59.5727 74.9295 60.1687C74.9295 60.8983 74.4838 61.6129 73.191 61.6129H71.4883ZM73.075 59.2865H72.118V61.0443H73.1917C73.9515 61.0443 74.3022 60.7161 74.3022 60.1691C74.3022 59.5637 73.9076 59.2865 73.075 59.2865ZM72.118 57.1423H73.0311C73.915 57.1423 74.1415 57.4195 74.1415 57.8643C74.1415 58.3603 73.8494 58.7176 73.1409 58.7176H72.118V57.1423ZM75.7486 62.431C76.2306 62.431 76.4571 62.3506 76.6762 61.7016L76.6903 61.6498L75.259 57.9665H75.8873L76.9756 60.7965L77.9325 57.967H78.5537L77.268 61.7307C76.9684 62.6057 76.7712 62.9999 75.7486 62.9999V62.431Z" fill="#D5D5D5"/>
</svg>
