<svg width="140" height="70" viewBox="0 0 140 70" fill="none" xmlns="http://www.w3.org/2000/svg">
<path d="M83.8727 43.3742L93.3833 52.9414C94.7524 54.3187 94.7524 56.5322 93.3833 57.9094L92.332 58.967C90.9628 60.3443 88.7625 60.3443 87.3933 58.967L77.8828 49.3998" fill="#858585"/>
<path d="M82.4735 48.0178C84.1348 46.3466 84.7618 44.2677 83.8738 43.3745C82.9859 42.4812 80.9193 43.1119 79.258 44.7831C77.5967 46.4543 76.9698 48.5332 77.8577 49.4264C78.7457 50.3196 80.8122 49.689 82.4735 48.0178Z" fill="#D5D5D5"/>
<path d="M78.1812 41.0772L75.5708 43.7032L79.547 47.703L82.1574 45.077L78.1812 41.0772Z" fill="#494949"/>
<path d="M64.4367 49.105C75.1712 49.105 83.8733 40.351 83.8733 29.5525C83.8733 18.7539 75.1712 10 64.4367 10C53.7021 10 45 18.7539 45 29.5525C45 40.351 53.7021 49.105 64.4367 49.105Z" fill="#818080"/>
<path d="M64.4368 46.0799C73.5106 46.0799 80.8663 38.6803 80.8663 29.5525C80.8663 20.4247 73.5106 13.0251 64.4368 13.0251C55.3631 13.0251 48.0073 20.4247 48.0073 29.5525C48.0073 38.6803 55.3631 46.0799 64.4368 46.0799Z" fill="#656565"/>
<path d="M54.7328 27.3458L50.6011 31.5022L59.9364 40.8931L64.0681 36.7368L54.7328 27.3458Z" fill="#D5D5D5"/>
<path d="M59.9382 40.9889L50.501 31.4955L54.7061 27.2653L64.1189 36.7341L59.9382 40.9889ZM50.6721 31.4955L59.9382 40.8167L63.9722 36.7341L54.7306 27.4374L50.6721 31.4955Z" fill="#D5D5D5"/>
<path d="M73.3563 18.9712L55.7402 36.6923L59.9584 40.9356L77.5745 23.2145L73.3563 18.9712Z" fill="#D5D5D5"/>
<path d="M59.9621 41.0134L55.6592 36.6848L73.36 18.8785L77.663 23.2071L59.9621 41.0134ZM55.8303 36.6848L59.9621 40.8412L77.4918 23.2071L73.36 19.0506L55.8303 36.6848Z" fill="#D5D5D5"/>
<path d="M79.2777 42.1937C79.2777 42.1937 77.7129 43.9399 76.6372 44.8007L76.8572 45.0467C78.0063 44.481 78.9354 43.571 79.4977 42.4397L79.2777 42.1937Z" fill="#494949"/>
<path d="M78.8854 21.6577C78.8854 21.6577 80.5968 41.7266 60.5 45.5879C60.5 45.5879 70.3284 48.3425 77.0517 40.1772C83.7751 32.0119 79.8144 23.2071 78.8854 21.6577Z" fill="#D5D5D5"/>
<path d="M52.5066 22.8628C51.8465 22.8628 51.3086 22.3218 51.3086 21.6577C51.3086 21.4118 51.3819 21.1904 51.5286 20.9937C56.2717 14.0089 63.5085 13.7629 63.8019 13.7383C64.462 13.7629 64.9754 14.3532 64.9265 15.0172C64.902 15.6075 64.4375 16.0994 63.8507 16.1486C62.5794 16.247 61.3325 16.5421 60.159 17.0094C57.4697 18.0423 55.1226 19.9115 53.509 22.3464C53.2889 22.6661 52.9222 22.8628 52.5066 22.8628Z" fill="#D5D5D5"/>
</svg>
