<svg width="140" height="70" viewBox="0 0 140 70" fill="none" xmlns="http://www.w3.org/2000/svg">
<path d="M17.9295 37.9898L29.9038 26.8268C30.0919 26.6507 30.0904 26.3647 29.9007 26.1901C29.8119 26.1073 29.693 26.0607 29.5696 26.0592L22.0067 25.9237C20.6868 25.8996 19.6317 24.8988 19.6317 23.6707V21.7592C19.6317 20.516 20.7154 19.5062 22.0534 19.5062L40.2345 19.6642C41.562 19.6747 42.632 20.6801 42.632 21.9173V38.8387C42.632 40.0833 41.5484 41.0932 40.2104 41.0932H38.2087C36.8692 41.0932 35.7855 40.0833 35.7855 38.8387V31.8236C35.7855 31.5737 35.5703 31.3721 35.3039 31.3721C35.1745 31.3721 35.0511 31.4202 34.9608 31.503L16.3612 49.0264C16.1309 49.2431 16 49.5457 16 49.8617V52.9652C16 54.0789 16.9632 54.9834 18.1522 54.9849L24.8859 55C26.0824 55 27.0487 54.0955 27.0487 52.9802V45.9576H35.1353L39.9305 53.951C40.3127 54.5876 41.0322 54.9804 41.8118 54.9804H51.0468C51.244 54.9804 51.4382 54.9308 51.6052 54.8344C52.1169 54.547 52.278 53.9254 51.9694 53.4483L46.333 44.728C47.8019 44.3999 49.1866 43.8671 50.49 43.1296C51.7934 42.3921 53.0034 41.4545 54.1172 40.3181C55.2309 39.1818 56.1159 37.7595 56.7736 36.0483C57.4313 34.3385 57.7609 32.4768 57.7609 30.4615C57.7609 25.9162 56.1716 22.2032 52.9959 19.3225C49.8217 16.4403 45.5744 15 40.2601 15H18.1568C16.9662 15 16 15.903 16 17.0198V37.15C16 37.7836 16.5147 38.2983 17.1484 38.2983C17.4388 38.2983 17.7173 38.187 17.931 37.9898H17.9295Z" fill="#D5D5D5"/>
<path fill-rule="evenodd" clip-rule="evenodd" d="M71.6875 41.4846V27.8352C71.6875 27.3957 72.0427 27.0405 72.4822 27.0405H80.921C82.9454 27.0405 84.5603 27.5899 85.7704 28.6886C86.9789 29.7873 87.584 31.202 87.584 32.9328C87.584 33.7004 87.4575 34.4108 87.2077 35.0625C86.9578 35.7142 86.6207 36.2575 86.1963 36.6895C85.7719 37.1229 85.3128 37.4796 84.8161 37.7611C84.3195 38.0425 83.7927 38.2457 83.2343 38.3706L85.361 41.6667C85.4799 41.8503 85.4272 42.0956 85.2421 42.2145C85.1774 42.2567 85.1036 42.2793 85.0269 42.2793H81.4824C81.2025 42.2793 80.9436 42.1318 80.8006 41.8925L78.9705 38.8402H75.8926V41.4891C75.8926 41.9286 75.5374 42.2838 75.098 42.2838H75.0965L72.4807 42.2793C72.0427 42.2793 71.6875 41.9226 71.6875 41.4846ZM89.8655 31.5995C89.4531 32.5476 89.2484 33.5681 89.2484 34.6592H89.2469C89.2469 35.7519 89.4531 36.7723 89.864 37.7205C90.2748 38.6687 90.8407 39.4754 91.5632 40.1392C92.2856 40.8044 93.157 41.3267 94.179 41.7074C95.2009 42.0882 96.2996 42.2794 97.475 42.2794C99.0418 42.2794 100.449 41.9558 101.697 41.3086C102.944 40.6629 103.923 39.7569 104.63 38.5935C105.336 37.4286 105.69 36.1192 105.69 34.6592C105.69 33.2008 105.337 31.8899 104.63 30.7265C103.924 29.5631 102.946 28.6571 101.697 28.0099C100.449 27.3642 99.0403 27.0406 97.475 27.0406C96.2996 27.0406 95.2009 27.2303 94.179 27.611C93.1585 27.9918 92.2856 28.5156 91.5632 29.1793C90.8422 29.8446 90.2748 30.6513 89.8655 31.5995ZM93.6663 36.19C93.4601 35.7159 93.3563 35.2056 93.3563 34.6593H93.3578C93.3578 34.1145 93.4601 33.6043 93.6663 33.1302C93.871 32.6561 94.1539 32.2527 94.5151 31.9186C94.8764 31.5875 95.3113 31.3256 95.823 31.136C96.3333 30.9448 96.8841 30.85 97.4711 30.85C98.2537 30.85 98.9581 31.0125 99.5827 31.3346C100.206 31.6582 100.695 32.1112 101.049 32.6937C101.402 33.2747 101.578 33.9309 101.578 34.6593C101.578 35.3893 101.402 36.044 101.049 36.6264C100.695 37.2089 100.206 37.6604 99.5827 37.984C98.9581 38.3076 98.2537 38.4686 97.4711 38.4686C96.8826 38.4686 96.3348 38.3738 95.823 38.1827C95.3128 37.993 94.8764 37.7311 94.5151 37.4C94.1539 37.0674 93.871 36.664 93.6663 36.19ZM107.756 34.6592C107.756 33.5681 107.961 32.5476 108.373 31.5995C108.784 30.6513 109.35 29.8446 110.073 29.1793C110.795 28.5156 111.666 27.9918 112.687 27.6125C113.71 27.2303 114.809 27.0406 115.983 27.0406C117.55 27.0406 118.957 27.3642 120.206 28.0099C121.454 28.6571 122.431 29.5631 123.138 30.7265C123.845 31.8899 124.198 33.2008 124.198 34.6592C124.198 36.1192 123.845 37.4286 123.138 38.5935C122.431 39.7569 121.454 40.6629 120.206 41.3086C118.957 41.9558 117.55 42.2794 115.983 42.2794C114.809 42.2794 113.71 42.0882 112.687 41.7074C111.666 41.3267 110.793 40.8044 110.073 40.1392C109.35 39.4754 108.784 38.6687 108.372 37.7205C107.961 36.7723 107.756 35.7519 107.756 34.6592ZM112.174 36.19C111.968 35.7159 111.866 35.2056 111.866 34.6593C111.866 34.1145 111.968 33.6043 112.174 33.1302C112.379 32.6561 112.662 32.2527 113.023 31.9186C113.384 31.5875 113.819 31.3256 114.331 31.136C114.843 30.9448 115.392 30.85 115.979 30.85C116.763 30.85 117.466 31.0125 118.091 31.3346C118.714 31.6582 119.203 32.1112 119.556 32.6937C119.91 33.2747 120.086 33.9309 120.086 34.6593C120.086 35.3893 119.91 36.044 119.556 36.6264C119.204 37.2089 118.715 37.6604 118.091 37.984C117.466 38.3076 116.762 38.4686 115.979 38.4686C115.392 38.4686 114.843 38.3738 114.332 38.1827C113.821 37.993 113.384 37.7311 113.023 37.4C112.663 37.0674 112.379 36.664 112.174 36.19ZM80.3307 35.412H75.8938V30.4693H80.3307C81.178 30.4693 81.8794 30.6906 82.4332 31.1316C82.9871 31.5741 83.264 32.1655 83.264 32.9075C83.264 33.6751 82.9871 34.2832 82.4332 34.7347C81.8794 35.1862 81.178 35.412 80.3307 35.412Z" fill="#D5D5D5"/>
</svg>
