<svg width="140" height="70" viewBox="0 0 140 70" fill="none" xmlns="http://www.w3.org/2000/svg">
<path d="M57.5405 46.4644C56.8156 46.4528 56.0957 46.5903 55.423 46.8689C54.7502 47.1474 54.138 47.5614 53.6222 48.0866C53.1063 48.6119 52.6972 49.2379 52.4187 49.928C52.1401 50.6182 51.9978 51.3586 52 52.1061C52.0088 53.5639 52.5524 54.9643 53.5214 56.0259C54.4903 57.0876 55.8132 57.7319 57.2239 57.8294C58.7347 57.8659 60.1979 57.2835 61.2929 56.2097C62.3879 55.1357 63.0252 53.6582 63.0653 52.1007C63.0703 51.354 62.9304 50.6138 62.6538 49.9237C62.3772 49.2336 61.9696 48.6076 61.4548 48.0823C60.94 47.5572 60.3285 47.1435 59.6562 46.8656C58.984 46.5877 58.2647 46.4513 57.5405 46.4644Z" fill="white"/>
<path d="M80.3125 22.6825C81.0583 22.7058 81.801 22.575 82.4971 22.2981C83.1931 22.0211 83.8285 21.6036 84.3658 21.0699C84.9032 20.5362 85.3316 19.8971 85.626 19.1902C85.9203 18.4835 86.0747 17.723 86.08 16.9538C86.0928 16.2083 85.96 15.4678 85.6893 14.7763C85.4187 14.0849 85.0158 13.4568 84.5047 12.9292C83.9936 12.4018 83.3847 11.9858 82.7143 11.7061C82.044 11.4264 81.3258 11.2887 80.6028 11.3012C79.8772 11.2814 79.1554 11.415 78.4819 11.6939C77.8084 11.9728 77.1975 12.391 76.6867 12.9226C76.176 13.4543 75.7763 14.0882 75.5123 14.7853C75.2484 15.4824 75.1257 16.2278 75.1519 16.9756C75.1187 18.4333 75.6401 19.8466 76.6045 20.9131C77.5689 21.9797 78.8998 22.6147 80.3125 22.6825Z" fill="white"/>
<path d="M87.875 43.7277C87.3473 37.5801 83.3159 34.5607 78.1658 32.7654C74.5565 31.5031 70.7784 30.6762 67.243 29.2889C62.1615 27.3086 59.4915 23.4731 60.0086 19.5506C60.5363 15.7858 63.1746 13.8599 67.8551 12.4182C69.5897 11.8709 71.3834 11.5475 73.1952 11.4553C73.2553 11.2939 73.2857 11.1223 73.2849 10.9494C73.2849 10.6773 73.211 10.525 73.0949 10.4869C71.852 10.1396 70.5674 9.97653 69.2798 10.0027C65.6422 10.0409 62.0867 11.1221 59.0114 13.1255C51.3284 18.3156 51.4023 29.0495 59.3596 33.799C62.1088 35.4311 65.4173 36.1058 68.4303 37.3244C71.5963 38.6138 75.0895 39.5005 77.7807 41.5026C83.2684 45.5829 82.2078 53.5748 76.0393 56.4746C73.0767 57.8256 69.8515 58.4531 66.6151 58.308C66.5441 58.4632 66.5047 58.6317 66.499 58.803C66.499 59.0751 66.5517 59.222 66.6626 59.2764C67.9169 59.7368 69.236 59.9812 70.5673 60C74.4405 60 76.8994 59.0914 79.8121 57.5736C85.2683 54.7228 88.4291 50.2943 87.875 43.7277Z" fill="white"/>
</svg>
