<svg width="74" height="74" xmlns="http://www.w3.org/2000/svg">
    <defs>
        <filter x="-4.3%" y="-3.1%" width="108.6%" height="106.2%" filterUnits="objectBoundingBox" id="a">
            <feOffset dy="2" in="SourceAlpha" result="shadowOffsetOuter1"/>
            <feGaussianBlur stdDeviation="2" in="shadowOffsetOuter1" result="shadowBlurOuter1"/>
            <feColorMatrix values="0 0 0 0 0 0 0 0 0 0 0 0 0 0 0 0 0 0 0.5 0" in="shadowBlurOuter1" result="shadowMatrixOuter1"/>
            <feMerge>
                <feMergeNode in="shadowMatrixOuter1"/>
                <feMergeNode in="SourceGraphic"/>
            </feMerge>
        </filter>
    </defs>
    <g filter="url(#a)" transform="translate(-103 -31)" fill="#FFF" fill-rule="evenodd">
        <path d="M144.43 67.784a6.215 6.215 0 1 1-4.603-6.004l4.715-4.715-1.87-9.357a3.108 3.108 0 0 1 .849-2.807l10.987-10.988c1.755-1.755 4.758-.846 5.245 1.588l1.79 8.956 8.956 1.791c2.434.487 3.343 3.49 1.588 5.245L161.1 62.481a3.107 3.107 0 0 1-2.807.85l-9.356-1.871-4.717 4.717c.137.513.21 1.051.21 1.607zM155 46.51l-.712-3.51L149 48.457l.68 3.543 5.32-5.49zm-1 9.814 3.915.676L164 51.67l-3.922-.67L154 56.324zm-18.993-7.264a3.108 3.108 0 1 1 1.213 6.097 12.44 12.44 0 0 0-10 12.194c0 6.866 5.57 12.433 12.442 12.433 5.924 0 10.994-4.17 12.182-9.891a3.11 3.11 0 0 1 6.09 1.263C155.152 79.747 147.55 86 138.663 86 128.355 86 120 77.65 120 67.351c0-8.937 6.337-16.569 15.007-18.29zM138 37a3.1 3.1 0 1 1 0 6.2c-13.697 0-24.8 11.103-24.8 24.8 0 13.697 11.103 24.8 24.8 24.8 13.697 0 24.8-11.103 24.8-24.8a3.1 3.1 0 1 1 6.2 0c0 17.12-13.88 31-31 31-17.12 0-31-13.88-31-31 0-17.12 13.88-31 31-31z"/>
    </g>
</svg>
