<svg width="140" height="70" viewBox="0 0 140 70" fill="none" xmlns="http://www.w3.org/2000/svg">
<path d="M33 53.8541V51.4414L42.3999 39.8733H33.0708V36.8043H47.0065V39.217L37.6067 50.7851H47.1031V53.8541H33Z" fill="#848484"/>
<path d="M53.0933 54.0729C51.7293 54.0729 50.6163 53.7126 49.7541 52.9855C48.892 52.265 48.4609 51.3256 48.4609 50.1739C48.4609 48.9708 48.9242 48.0315 49.8507 47.3495C50.7771 46.6675 52.051 46.3265 53.6724 46.3265C54.1935 46.3265 54.7147 46.3651 55.2294 46.4487C55.7505 46.5324 56.2588 46.6546 56.7606 46.8155V45.9147C56.7606 45.1813 56.5355 44.6344 56.0786 44.2612C55.6218 43.888 54.9592 43.7015 54.0841 43.7015C53.5501 43.7015 52.9647 43.7851 52.3406 43.9588C51.7165 44.1261 51.0023 44.3963 50.211 44.7502L48.9949 42.2924C49.9858 41.8356 50.9508 41.4946 51.8838 41.2695C52.8167 41.0443 53.7367 40.9285 54.6503 40.9285C56.3553 40.9285 57.6807 41.3402 58.6329 42.1573C59.5851 42.9744 60.0548 44.1325 60.0548 45.6316V53.867H56.7671V52.992C56.2331 53.3651 55.6669 53.6418 55.075 53.822C54.4895 53.9828 53.8268 54.0729 53.0933 54.0729ZM51.6586 50.1032C51.6586 50.5921 51.8709 50.9782 52.2891 51.2613C52.7137 51.5444 53.2735 51.6859 53.9683 51.6859C54.5216 51.6859 55.0299 51.6151 55.4932 51.48C55.9564 51.3449 56.381 51.1455 56.7735 50.8817V48.9837C56.3682 48.8228 55.9435 48.7006 55.4932 48.6298C55.0492 48.559 54.5796 48.5204 54.0906 48.5204C53.3249 48.5204 52.733 48.662 52.302 48.9451C51.8709 49.2282 51.6586 49.6142 51.6586 50.1032Z" fill="#848484"/>
<path d="M75.9396 47.5232C75.9396 48.4304 75.7723 49.2861 75.4313 50.0839C75.0903 50.8817 74.6271 51.5701 74.0416 52.1556C73.4561 52.741 72.7612 53.1979 71.957 53.5324C71.1528 53.867 70.2971 54.0343 69.3899 54.0343C68.7594 54.0343 68.1417 53.9442 67.5369 53.764C66.9321 53.5839 66.3853 53.333 65.8834 53.0113V53.867H62.5957V36.8172L65.9349 36.0837V42.1702C66.4367 41.797 66.9965 41.5075 67.6013 41.3081C68.2125 41.1086 68.8366 41.0057 69.4864 41.0057C70.3807 41.0057 71.2171 41.1794 72.0085 41.5139C72.7934 41.8549 73.4818 42.3182 74.0673 42.9037C74.6528 43.4891 75.1096 44.1776 75.4442 44.9754C75.7787 45.7603 75.9396 46.6096 75.9396 47.5232ZM68.9524 43.843C68.354 43.843 67.7943 43.9459 67.2731 44.1454C66.752 44.3513 66.308 44.6472 65.9349 45.0333V50.026C66.2952 50.3862 66.7327 50.6693 67.2603 50.8817C67.7878 51.094 68.354 51.1969 68.9524 51.1969C69.9882 51.1969 70.8697 50.8431 71.5838 50.1353C72.298 49.4276 72.6583 48.559 72.6583 47.5167C72.6583 46.4745 72.298 45.6059 71.5774 44.8982C70.8504 44.1969 69.9754 43.843 68.9524 43.843Z" fill="#848484"/>
<path d="M91.336 47.5232C91.336 48.4304 91.1688 49.2861 90.8278 50.0839C90.4867 50.8817 90.0235 51.5701 89.438 52.1556C88.8525 52.741 88.1577 53.1979 87.3535 53.5324C86.5492 53.867 85.6935 54.0343 84.7864 54.0343C84.1558 54.0343 83.5381 53.9442 82.9333 53.764C82.3286 53.5839 81.7817 53.333 81.2799 53.0113V53.867H77.9922V36.8172L81.3314 36.0837V42.1702C81.8332 41.797 82.393 41.5075 82.9977 41.3081C83.609 41.1086 84.233 41.0057 84.8828 41.0057C85.7771 41.0057 86.6135 41.1794 87.4049 41.5139C88.1898 41.8549 88.8783 42.3182 89.4638 42.9037C90.0493 43.4891 90.5061 44.1776 90.8406 44.9754C91.1688 45.7603 91.336 46.6096 91.336 47.5232ZM84.3488 43.843C83.7504 43.843 83.1908 43.9459 82.6696 44.1454C82.1485 44.3513 81.7045 44.6472 81.3314 45.0333V50.026C81.6917 50.3862 82.1292 50.6693 82.6567 50.8817C83.1843 51.094 83.7504 51.1969 84.3488 51.1969C85.3846 51.1969 86.2662 50.8431 86.9803 50.1353C87.6945 49.4276 88.0548 48.559 88.0548 47.5167C88.0548 46.4745 87.6944 45.6059 86.9738 44.8982C86.2404 44.1969 85.3718 43.843 84.3488 43.843Z" fill="#848484"/>
<path d="M95.042 39.6546C94.5209 39.6546 94.077 39.468 93.7038 39.0948C93.3306 38.7217 93.144 38.2777 93.144 37.7566C93.144 37.2354 93.3306 36.7915 93.7038 36.4183C94.077 36.0452 94.5209 35.8586 95.042 35.8586C95.5632 35.8586 96.0071 36.0452 96.3803 36.4183C96.7534 36.7915 96.94 37.2354 96.94 37.7566C96.94 38.2777 96.7534 38.7217 96.3803 39.0948C96.0071 39.468 95.5567 39.6546 95.042 39.6546ZM96.7213 41.1601V53.8477H93.3821V41.1601H96.7213Z" fill="#848484"/>
<path d="M101.057 50.2704V43.9588H98.4517V41.16H101.057V37.9174L104.397 37.1646V41.16H108V43.9588H104.397V49.5884C104.397 50.1868 104.525 50.6114 104.789 50.8559C105.053 51.1004 105.503 51.2226 106.153 51.2226C106.462 51.2226 106.751 51.2033 107.028 51.1647C107.305 51.1261 107.607 51.0489 107.929 50.9331V53.6611C107.568 53.7769 107.144 53.867 106.636 53.9442C106.134 54.0149 105.703 54.0535 105.342 54.0535C103.927 54.0535 102.859 53.7318 102.138 53.0885C101.418 52.4451 101.057 51.5057 101.057 50.2704Z" fill="#848484"/>
<path d="M94.7454 32.0233C92.5772 29.868 90.0937 28.0472 87.385 26.6317C87.2821 26.5803 87.2435 26.4516 87.2949 26.3486C87.3271 26.2907 87.3786 26.2521 87.4429 26.2393C89.7591 25.7825 92.011 24.4764 93.2141 23.685C93.568 23.4534 93.6645 22.9773 93.4329 22.6234C93.375 22.5398 93.3042 22.469 93.2205 22.4111C91.4319 21.2015 86.9861 18.5829 80.0633 17.0581C73.0825 15.5268 65.5935 15.9772 61.6109 16.4404C60.5686 16.5048 59.5328 16.6656 58.5291 16.9359C58.3618 16.9809 58.2653 17.1482 58.3103 17.3155C58.3489 17.4506 58.4712 17.5471 58.6063 17.5471C61.939 17.3862 65.2846 17.4441 68.611 17.7208C77.8757 18.9175 81.884 20.8734 81.3436 21.3945C81.305 21.4331 81.2471 21.4524 81.1892 21.446C80.5265 21.401 79.8574 21.3688 79.1883 21.3624C78.8344 21.3495 78.4741 21.3431 78.1202 21.3431H78.0109C75.4952 21.3109 72.9796 21.6069 70.5347 22.2181C61.1541 24.4378 53.2018 30.6272 48.756 39.1778C48.5115 39.6475 48.6917 40.2265 49.1613 40.471C49.5667 40.6833 50.0685 40.5804 50.3516 40.2201C52.8544 37.0803 55.8976 34.4167 59.3526 32.3579C64.4997 29.4112 70.3224 27.867 76.248 27.8799C78.7958 27.867 81.3307 28.1179 83.8206 28.6327C87.919 29.6685 91.67 31.515 94.0762 32.8661C94.34 33.0141 94.6746 32.9176 94.8226 32.6538C94.9448 32.4608 94.9126 32.197 94.7454 32.0233ZM89.3023 22.6299C89.3409 22.2567 89.6755 21.9864 90.0486 22.025C90.4218 22.0637 90.692 22.3982 90.6534 22.7714C90.6213 23.0931 90.3703 23.344 90.0486 23.3762C89.6755 23.4148 89.3409 23.1381 89.3023 22.765C89.2959 22.7199 89.2959 22.6749 89.3023 22.6299Z" fill="white"/>
<path d="M55.6091 25.2748C55.6091 26.6581 54.4896 27.7776 53.1063 27.7776C51.723 27.7776 50.6035 26.6581 50.6035 25.2748C50.6035 23.8915 51.723 22.772 53.1063 22.772C54.4896 22.772 55.6091 23.8915 55.6091 25.2748Z" fill="#B1B1B1"/>
</svg>
