<svg width="13" height="17" xmlns="http://www.w3.org/2000/svg">
    <path d="M4.875 10.969a1.625 1.625 0 1 1 2.438 1.407v.625a.81.81 0 0 1-.813.812.81.81 0 0 1-.813-.812v-.625a1.624 1.624 0 0 1-.812-1.407zm-3.25-6.094a4.875 4.875 0 1 1 9.75 0v2.031c.898.001 1.625.726 1.625 1.628v6.088c0 .9-.727 1.628-1.627 1.628H1.627A1.625 1.625 0 0 1 0 14.622V8.534c0-.898.726-1.627 1.625-1.628v-2.03zM3.25 6.906h6.5v-2.03a3.251 3.251 0 0 0-6.5 0v2.03zM1.625 8.531v6.094h9.75V8.531h-9.75z" fill="#FFF" fill-rule="evenodd"/>
</svg>
